<?xml version="1.0" encoding="iso-8859-1"?>
<!-- Generator: Adobe Illustrator 16.0.4, SVG Export Plug-In . SVG Version: 6.00 Build 0)  -->
<!DOCTYPE svg PUBLIC "-//W3C//DTD SVG 1.1//EN" "http://www.w3.org/Graphics/SVG/1.1/DTD/svg11.dtd">
<svg version="1.1" id="unclesam_xA0_Image_1_" xmlns="http://www.w3.org/2000/svg" xmlns:xlink="http://www.w3.org/1999/xlink"
	 x="0px" y="0px" width="300px" height="300px" viewBox="0 0 200 200"
	 style="enable-background:new 0 0 162.72 167.52;" xml:space="preserve">
<g>
	<path style="fill: #FAEDF0" d="M144.405,131.889c0.256,2.045,1.447,3.674,2.09,5.513
		c1.249,3.575,2.575,7.139,4.148,10.58c1.396,3.054,2.308,6.283,3.713,9.318c0.379,0.82,0.021,1.013-0.612,1.087
		c-0.711,0.085-1.433,0.09-2.149,0.11c-0.45,0.013-0.673-0.212-0.86-0.653c-0.9-2.126-1.938-4.174-3.089-6.191
		c-1.092-1.912-1.818-4.053-2.883-6.021c-1.225-2.265-2.705-4.392-3.575-6.856c-0.727-2.059-1.268-4.192-2.314-6.132
		c-0.162-0.3-0.173-0.843-0.584-0.807c-0.476,0.041-0.435,0.587-0.528,0.963c-0.261,1.047-0.549,2.087-0.782,3.141
		c-0.241,1.091-0.486,2.16,0.397,3.169c0.432,0.493,0.296,1.215,0.051,1.841c-0.39,0.994-0.086,1.82,0.484,2.687
		c1.69,2.565,3.148,5.248,4.036,8.224c0.479,1.603,1.148,3.147,1.736,4.716c0.371,0.993,0.105,1.397-0.942,1.489
		c-1.194,0.104-2.035-0.25-2.599-1.425c-1.329-2.771-2.805-5.471-3.953-8.329c-0.279-0.695-0.77-1.283-1.034-2.005
		c-0.243-0.665-0.833-0.809-1.494-0.549c-0.675,0.267-0.42,0.755-0.275,1.205c0.766,2.387,1.882,4.619,3.022,6.841
		c0.454,0.886,0.923,1.765,1.344,2.666c0.213,0.455,0.827,0.995,0.053,1.431c-0.673,0.378-1.452,0.565-2.121-0.048
		c-0.255-0.233-0.523-0.579-0.561-0.899c-0.156-1.361-1.315-2.052-1.962-3.08c-0.186-0.296-0.557-0.362-0.857-0.177
		c-0.349,0.214-0.088,0.486,0.022,0.727c0.334,0.725,0.662,1.451,1.007,2.17c0.224,0.467,0.608,0.965,0.183,1.437
		c-0.475,0.527-1.19,0.524-1.785,0.278c-0.593-0.245-1.183-0.472-1.803-0.622c-0.354-0.087-0.726-0.134-1.058,0.046
		c-2.125,1.149-4.365,0.301-6.55,0.378c-0.171,0.006-0.453-0.131-0.507-0.27c-0.507-1.312-1.801-2.13-2.19-3.512
		c-0.29-1.026-0.807-1.899-1.757-2.45c-0.212-0.122-0.389-0.205-0.416-0.508c-0.175-1.896-1.102-2.665-2.963-2.18
		c-1.529,0.399-3.081,0.81-4.443,1.73c-1.631,1.103-3.463,1.768-5.355,2.32c-1.179,0.344-2.252,1.016-3.266,1.723
		c-0.805,0.562-1.436,1.384-2.538,1.454c-0.233,0.016-0.484,0.277-0.668,0.479c-1.219,1.334-2.056,1.514-3.734,0.96
		c-0.665-0.22-1.405-0.249-2.115-0.29c-1.778-0.104-3.548-0.364-5.344-0.143c-1.202,0.148-2.183-0.644-3.239-1.058
		c-0.619-0.243-0.98-0.536-1.648,0.094c-0.619,0.583-1.643,0.51-2.507,0.273c-0.517-0.142-0.396-0.561-0.327-0.987
		c0.265-1.633,1.638-2.41,2.777-3.104c3.257-1.98,6.699-3.653,10.009-5.553c1.777-1.02,3.486-2.183,5.13-3.41
		c2.824-2.111,5.948-3.709,9.002-5.426c0.717-0.403,0.726-0.529,0.067-0.989c-1.314-0.919-1.925-0.928-3.667,0.19
		c-2.245,1.441-4.587,2.758-6.693,4.379c-1.343,1.034-2.847,1.783-4.181,2.833c-1.854,1.459-3.766,2.916-6.146,3.552
		c-0.606,0.162-1.118,0.73-1.638,1.156c-1.626,1.336-3.678,2.031-5.158,3.638c-0.759,0.824-1.224,1.758-1.756,2.673
		c-0.497,0.854-1.153,1.005-2.021,0.813c-0.971-0.213-1.749-0.693-1.921-1.717c-0.082-0.486-0.053-1.255,0.852-0.941
		c0.579,0.201,0.718-0.27,0.933-0.527c1.617-1.949,3.685-3.377,5.611-4.972c1.272-1.053,2.858-1.472,4.258-2.262
		c0.624-0.353,1.32-0.606,1.877-1.04c1.025-0.799,1.979-1.69,2.949-2.557c0.548-0.49,0.925-0.931,1.92-0.73
		c0.861,0.173,1.678-0.799,2.072-1.692c0.187-0.42,0.251-0.716,0.786-0.602c0.509,0.108,0.792-0.326,1.138-0.569
		c0.717-0.505,1.373-1.087,2.133-1.546c0.447-0.271,1.155-0.586,0.562-1.38c-0.17-0.228,0.015-0.456,0.249-0.58
		c0.268-0.142,0.555-0.179,0.764,0.083c0.597,0.75,0.943,0.021,1.384-0.21c0.534-0.279,0.641-0.661,0.356-1.184
		c-0.134-0.245-0.303-0.562,0.028-0.737c0.445-0.236,0.511,0.218,0.655,0.473c0.329,0.578,0.797,0.636,1.319,0.325
		c1.132-0.67,2.271-1.334,3.364-2.063c0.732-0.489,0.824-1.17,0.191-1.825c-0.587-0.607-0.756-1.267-0.544-2.084
		c0.097-0.373,0.09-0.796,0.034-1.183c-0.129-0.889-0.39-1.647-1.586-1.323c-0.268,0.072-0.624,0.109-0.986-0.157
		c2.354-1.992,0.41-4.103,0.166-6.176c-0.046-0.39-0.389-0.42-0.729-0.139c-1.752,1.444-2.684,3.45-3.764,5.417
		c0.981-0.375,1.894-0.792,2.888-0.966c0.269-0.048,0.604-0.224,0.764,0.071c0.176,0.322-0.153,0.589-0.302,0.859
		c-0.136,0.248-0.303,0.534-0.622,0.177c-0.406-0.455-0.813-0.194-1.182,0.028c-0.337,0.204-0.776,0.499-0.602,0.92
		c0.165,0.396,0.649,0.141,0.971,0.087c1.352-0.228,1.856,0.052,1.863,0.998c0.005,0.621-0.238,0.83-0.786,0.661
		c-0.807-0.248-1.246-0.014-1.271,0.854c-0.027,0.978,0.651,0.516,1.099,0.53c0.216,0.006,0.527-0.185,0.604,0.156
		c0.073,0.322-0.185,0.499-0.468,0.597c-0.567,0.193-1.144,0.362-1.703,0.577c-0.74,0.284-1.299,0.801-1.615,1.523
		c-0.591,1.351-1.582,2.449-2.285,3.728c-0.115,0.208-0.281,0.477-0.542,0.373c-0.408-0.162-0.122-0.463-0.044-0.7
		c0.346-1.048,1.244-1.759,1.68-2.749c0.148-0.338,0.569-0.825,0.12-1.038c-0.441-0.209-0.742,0.35-0.923,0.739
		c-1.494,3.234-3.738,5.98-5.749,8.879c-0.11,0.158-0.271,0.28-0.537,0.237c-0.004-0.91,0.896-1.305,1.109-2.058
		c0.093-0.327,0.434-0.688,0.09-0.99c-0.325-0.286-0.674,0.022-0.989,0.173c-0.411,0.195-0.807,0.516-0.921,0.907
		c-0.405,1.381-1.683,2.098-2.371,3.259c-0.248,0.418-0.719,0.968-1.003-0.065c-0.102-0.371-0.426-0.283-0.701-0.196
		c-0.632,0.198-1.132,0.555-1.497,1.126c-0.186,0.291-0.533,0.814-0.771,0.646c-0.97-0.688-1.509,0.013-2.142,0.502
		c-0.292,0.226-0.61,0.053-0.918,0.062c-1.299,0.039-2.443,0.397-3.087,1.671c-0.3,0.593-0.668,1.13-1.442,1.562
		c0.219-1.446,1.244-2.274,1.718-3.374c0.233-0.541,1.038-1.18,0.372-1.617c-0.671-0.44-1.165,0.414-1.554,0.954
		c-0.803,1.119-1.44,2.372-2.843,3.041c0.617-0.896,1.364-1.731,1.818-2.704c0.526-1.126,1.716-1.863,1.793-3.245
		c0.029-0.51,0.69-0.608,0.95-1.028c0.3-0.484,0.268-0.725-0.327-0.794c-0.611-0.072-1.199,0.046-1.768,0.246
		c-1.762,0.622-3.5,1.318-5.28,1.88c-3.21,1.012-6.53,1.571-9.876,1.7c-1.75,0.067-2.942,0.779-4.022,1.966
		c-2.458,2.7-7.094,2.983-9.895,0.589c-0.753-0.645-1.632-1.118-2.277-1.918c-0.563-0.699-0.764-1.393-0.468-2.212
		c0.305-0.846,0.057-1.337-0.794-1.66c-3.486-1.324-6.672-3.245-9.695-5.374c-1.695-1.193-3.208-2.688-4.663-4.229
		c-1.295-1.371-2.404-2.882-3.374-4.429c-1.034-1.651-2.462-3.021-3.308-4.761c-1.158-2.382-2.259-4.795-2.771-7.436
		c-0.438-2.258-1.209-4.442-1.493-6.738c-0.526-4.265-0.472-8.52,0.045-12.784c0.817-6.729,2.855-12.998,6.762-18.598
		c1.683-2.412,3.902-4.321,5.94-6.399c3.11-3.171,6.688-5.557,10.91-7.104c3.701-1.355,7.204-3.242,10.869-4.706
		c3.763-1.502,7.728-2.217,11.786-2.325c0.623-0.017,1.103-0.11,1.293-0.784c0.331-1.169,1.226-1.839,2.206-2.406
		c3.358-1.943,7.594-1.155,10.02,1.843c0.359,0.444,0.589,0.949,0.726,1.498c0.086,0.347,0.23,0.743-0.169,0.971
		c-0.43,0.244-0.676-0.125-0.87-0.411c-0.692-1.019-1.375-2-2.438-2.727c-2.054-1.404-5.793-1.215-7.614,0.479
		c-0.438,0.408-0.734,0.877-0.307,1.327c0.416,0.438,0.962,0.21,1.361-0.206c2.497-2.608,3.757-1.894,6.499-0.981
		c0.828,0.275,1.332,1.236,1.766,2.028c0.33,0.602,0.725,1.049,1.348,1.274c0.352,0.126,0.804,0.607,1.067,0.22
		c0.298-0.44,0.772-0.888,0.541-1.606c-0.642-1.996-0.532-4.11-0.876-6.146c-0.285-1.682,0.23-3.225,0.342-4.83
		c0.141-2.016-0.724-3.792-1.18-5.66c-0.3-1.229-0.89-2.385-1.317-3.585c-0.174-0.489-0.224-0.964,0.107-1.479
		c0.556-0.866,0.035-4.124-0.685-4.84c-0.273-0.272-0.576-0.234-0.89-0.148c-1.117,0.307-2.254,0.559-3.34,0.953
		c-0.984,0.357-1.972,0.294-2.961,0.236c-0.625-0.036-0.947-0.565-1.146-1.097c-0.201-0.541,0.16-0.867,0.537-1.212
		c1.707-1.558,3.949-1.848,6.01-2.548c0.935-0.317,1.896-0.468,1.998-1.714c0.011-0.141,0.124-0.323,0.244-0.399
		c2.004-1.264,3.269-3.41,5.399-4.525c0.341-0.179,0.706-0.337,1.021-0.153c0.643,0.376,1.275,0.283,1.944,0.158
		c1.226-0.229,2.199,0.083,2.744,1.318c0.263,0.597,0.743,0.762,1.386,0.611c3.601-0.841,7.16-1.814,10.579-3.248
		c1.78-0.747,3.695-0.992,5.559-1.408c1.421-0.318,2.425-0.926,3.115-2.29c1.223-2.413,3.226-4.047,5.807-4.876
		c2.491-0.8,4.813-2.218,7.545-2.167c1.274,0.024,2.56,0.027,3.818,0.2c2.049,0.28,3.387,1.584,4.067,3.449
		c0.35,0.958,0.881,1.057,1.631,0.792c0.922-0.326,1.887-0.331,2.828-0.489c0.693-0.116,1.381-0.103,2.014,0.46
		c0.755,0.67,1.879,0.22,2.789,0.79c0.846,0.529,2.039,0.484,2.92,0.977c1.491,0.835,3.226,1.318,4.361,2.721
		c0.729,0.902,1.751,1.558,2.415,2.458c1.254,1.7,2.531,3.449,3.216,5.471c0.464,1.373-1.152,3.618-2.595,3.754
		c-1.933,0.182-3.349,1.055-4.371,2.711c-0.468,0.759-1.536,0.913-2.038,1.717c-0.207,0.331-0.645,0.586-0.474,1.022
		c0.147,0.378,0.568,0.146,0.864,0.182c1.625,0.198,1.903,1.636,2.518,2.746c1.148,2.076,0.393,4.311,0.511,6.476
		c0.082,1.478-0.535,2.587-1.249,3.829c-0.818,1.423-2.012,2.556-2.737,4.018c-0.217,0.437-0.558,0.779-0.997,1.009
		c-1.475,0.77-2.519,2.028-3.644,3.198c-0.394,0.409-0.477,0.811-0.141,1.28c0.673,0.936,0.917,1.928,0.438,3.036
		c-0.074,0.173-0.125,0.503-0.035,0.578c1.222,1.01-0.039,1.937-0.074,2.896c-0.015,0.408-0.279,0.66-0.62,0.815
		c-1.286,0.584-2.584,0.791-3.934,0.162c-0.332-0.155-0.766-0.817-1.072-0.159c-0.271,0.582-0.38,1.355,0.46,1.752
		c1.152,0.544,2.386,0.911,3.412,1.721c0.507,0.4,0.967,0.812,1.347,1.337c0.787,1.088,0.517,1.931-0.787,2.33
		c-1.354,0.415-1.411,0.459-0.577,1.544c2.066,2.692,4.487,5.053,7.033,7.289c2.192,1.925,3.654,4.364,4.883,6.966
		c0.067,0.144,0.097,0.384,0.201,0.422c1.338,0.488,1.291,1.967,2.063,2.867c0.834,0.973,1.782,1.819,2.659,2.742
		c1.243,1.31,2.087,2.92,3.187,4.339c1.307,1.686,2.243,3.527,2.672,5.649c0.413,2.042-0.679,3.506-1.719,4.986
		c-0.808,1.149-2.267,1.714-2.842,3.117c-0.257,0.626-1.03,0.703-1.523,1.108c-1.017,0.836-1.896,1.812-2.934,2.631
		c-1.84,1.454-4.044,2.172-6.077,3.232c-1.199,0.625-1.375,0.917-0.439,1.932c1.546,1.676,2.86,3.525,4.281,5.293
		c1.022,1.271,1.964,2.593,2.705,4.073c1.301,2.599,2.319,5.323,3.692,7.892c1.027,1.92,1.865,3.95,2.673,5.977
		c0.267,0.671,0.314,1.5,0.227,2.229c-0.276,2.294-0.342,4.606-0.05,6.87c0.204,1.59-0.007,3.123,0.014,4.681
		c0.005,0.405,0.092,0.86-0.416,0.993c-0.511,0.134-0.701-0.278-0.826-0.67c-0.628-1.968-1.529-3.828-1.978-5.878
		c-0.413-1.887-1.396-3.648-1.817-5.534c-0.58-2.606-1.671-4.978-3.002-7.222c-1.026-1.73-2.387-3.265-3.611-4.876
		C144.949,131.894,144.749,131.786,144.405,131.889z M114.139,81.141c-1.294,0.514-1.195,2.023-2.044,2.877
		c1.11-0.463,2.071-1.084,2.613-2.207c0.3,0.007,0.525-0.147,0.752-0.32c2.371-1.814,4.771-3.591,7.109-5.444
		c1.809-1.432,3.546-2.955,5.31-4.444c0.227-0.191,0.653-0.417,0.307-0.741c-0.349-0.325-0.504,0.152-0.723,0.352
		c-1.02,0.937-1.996,1.933-3.096,2.766c-0.94,0.711-1.786,1.639-3.257,2c1.254-2,3.59-2.502,4.715-4.353
		c-0.499-0.167-0.769,0.091-0.959,0.297c-1.664,1.804-4.001,2.751-5.708,4.507c-0.344,0.354-0.766,1.13-1.489,0.206
		c-0.258-0.33-0.864,0.4-0.742,0.562c0.914,1.214-0.355,1.66-0.87,1.927c-0.884,0.458-1.412,1.075-1.812,1.904
		C114.207,81.066,114.17,81.104,114.139,81.141z M118.352,35.103c-0.923,0.274-2.35-0.014-1.805,1.808
		c0.167,0.56-0.646,1.053-0.332,1.809c0.492-1.355,1.283-2.513,2.105-3.652c0.663-0.417,1.332-0.828,1.988-1.257
		c0.198-0.13,0.393-0.358,0.228-0.584c-0.177-0.242-0.516-0.097-0.617,0.062C119.481,33.972,118.456,34.143,118.352,35.103z
		 M103.375,44.622c0.683-0.839,1.537-0.128,2.418-0.176c-0.135-0.242-0.192-0.383-0.281-0.501c-0.808-1.079-0.811-1.082,0.468-1.354
		c1.309-0.279,2.63-0.076,3.944-0.067c1.866,0.012,2.9-1.09,2.688-2.879c-0.064-0.551-0.019-1.116-0.011-1.675
		c0.004-0.353,0.127-0.643,0.535-0.659c0.319-0.013,0.735,0.053,0.736-0.383c0.001-0.507-0.476-0.428-0.819-0.461
		c-0.258-0.025-0.61,0.137-0.697-0.253c-0.076-0.34,0.136-0.628,0.381-0.83c0.21-0.172,0.477-0.323,0.74-0.375
		c0.655-0.13,0.855-0.494,0.946-1.151c0.259-1.883,0.24-3.779,0.737-5.663c0.635-2.406,1.549-4.448,3.651-5.94
		c2.375-1.686,4.419-1.17,5.366,1.511c0.163,0.459,0.208,1.184,0.819,1.174c0.501-0.008,0.395-0.69,0.549-1.079
		c0.103-0.259,0.267-0.493,0.37-0.751c0.677-1.69,0.584-3.476,0.561-5.235c-0.01-0.778-0.468-1.144-1.296-0.682
		c-2.302,1.282-4.844,1.569-7.406,1.609c-2.826,0.045-5.691,0.214-8.3-1.274c-0.38-0.217-0.842-0.21-1.285-0.073
		c-1.639,0.509-3.283,0.996-4.92,1.511c-4.067,1.282-8.117,2.625-12.208,3.826c-0.915,0.269-1.532,0.606-1.429,1.534
		c0.199,1.774-0.699,3.152-1.461,4.584c-0.561,1.054-1.118,2.057-0.185,3.2c0.148,0.181,0.107,0.532,0.12,0.806
		c0.235,4.936,0.967,9.764,3.082,14.295c0.256,0.55,0.483,1.096,0.145,1.711c-0.357,0.648-0.015,0.81,0.556,0.669
		c0.883-0.218,1.5,0.266,1.718,0.941c0.354,1.102,1.243,1.361,2.032,1.192c0.69-0.148,0.94-1.143,0.896-1.833
		C96.469,48.81,97.05,48.66,97.77,48.9c1.906,0.635,3.908,1.068,5.543,2.357c1.771,1.396,3.538,2.807,6.022,2.979
		c-0.438-0.706-0.734-1.417-1.781-1.249c-0.746,0.12-1.27-0.389-1.723-0.912c-0.653-0.754-1.275-1.535-1.93-2.288
		c-1.405-1.615-1.567-3.322-0.478-5.215L103.375,44.622z M35.407,109.641c0.194,0.327,0.003,0.57-0.117,0.808
		c-0.7,1.373-1.576,2.648-2.199,4.069c-0.265,0.605-0.484,1.423-1.134,1.632c-0.825,0.266-0.89,0.966-1.209,1.518
		c-0.241,0.416-0.162,0.908,0.464,0.662c0.812-0.319,1.11,0.181,1.419,0.694c3.231,5.376,7.719,9.481,12.918,12.888
		c1.677,1.099,3.56,1.767,5.304,2.708c2.861,1.544,6,2.281,9.107,2.824c4.801,0.841,9.665,0.938,14.486-0.332
		c3.391-0.893,6.719-1.807,9.852-3.49c2.44-1.312,4.751-2.82,6.861-4.525c2.973-2.4,5.575-5.264,7.673-8.49
		c0.812-1.247,2.053-2.395,1.791-4.141c1.137-0.589,1.128-1.936,1.848-2.825c0.548-0.676,1.061-1.74,0.407-2.493
		c-0.715-0.823-0.245-1.246,0.204-1.703c1.033-1.051,1.059-1.023-0.122-2.004c-0.246-0.204-0.472-0.435-0.726-0.628
		c-0.708-0.543-1.454-0.84-2.32-0.33c-0.599,0.353-1.225,0.224-1.865,0.118c-2.722-0.448-4.925-1.983-7.172-3.412
		c-1.429-0.908-3.121-1.46-4.119-2.977c-0.606-0.92-1.123-1.942-1.893-2.703c-1.849-1.827-2.16-4.158-1.993-6.465
		c0.255-3.514,5.21-5.623,8.495-3.968c1.328,0.669,2.54,1.527,3.902,2.149c1.15,0.523,2.434,1.197,2.77,2.621
		c0.158,0.671,0.497,1.141,0.904,1.635c1.62,1.97,3.308,3.907,3.957,6.467c0.244,0.967,0.303,1.996,0.66,2.913
		c0.319,0.822,0.522,1.466-0.262,2.108c-0.246,0.201-0.362,0.535-0.107,0.857c0.145,0.184,0.248,0.463,0.53,0.42
		c0.407-0.061,0.608-0.404,0.68-0.75c0.106-0.512,0.217-1.01,0.467-1.476c0.985-1.834,0.628-3.892,0.849-5.839
		c0.08-0.707-0.36-1.648-0.298-2.404c0.453-5.533-1.562-10.531-3.494-15.469c-1.21-3.092-3.352-5.778-5.308-8.503
		c-1.389-1.934-3.019-3.665-4.95-4.985c-1.886-1.29-3.345-3.339-5.865-3.606c-0.382-0.041-0.557-0.276-0.595-0.635
		c-0.031-0.3-0.18-0.48-0.444-0.652c-1.97-1.281-4.153-2.152-6.31-3c-1.837-0.722-3.852-1.001-5.797-1.434
		c-1.643-0.365-3.355-0.217-4.987-0.459c-3.901-0.58-7.63,0.375-11.389,0.948c-4.022,0.613-7.381,2.918-10.866,4.844
		c-1.292,0.714-2.541,1.504-3.805,2.269c-2.946,1.782-4.918,4.597-7.341,6.934c-1.468,1.416-2.566,2.966-3.491,4.899
		c-1.24,2.59-1.598,5.391-2.741,7.964c-0.421,0.949-0.892,1.972-1.001,3.054c-0.289,2.857-0.703,5.714-0.78,8.578
		c-0.097,3.637,0.71,7.205,1.26,10.788c0.039,0.258,0.157,0.466,0.435,0.498c0.314,0.036,0.538-0.141,0.679-0.402
		c1.301-2.416,2.692-4.77,4.355-6.965c1.54-2.032,2.969-4.148,4.46-6.217c0.172-0.239,0.393-0.681,0.725-0.448
		c0.383,0.269,0.051,0.661-0.132,0.946c-1.373,2.139-3.216,3.953-4.424,6.193c-1.078,1.996-2.772,3.604-3.524,5.804
		c-0.2,0.585-0.576,1.22-1.061,1.569c-0.629,0.454-1.227,1.811-2.358,0.179c0.102,0.766,0.161,1.234,0.231,1.701
		c0.011,0.073,0.073,0.139,0.113,0.207c1.112-0.555,1.626-0.239,1.617,0.988c-0.003,0.396-0.255,0.661-0.49,0.93
		c-0.395,0.451-0.5,1.014-0.105,1.413c0.545,0.55,0.687,1.233,0.957,1.891c0.476,1.161,0.771,1.181,1.625,0.268
		c0.282-0.301,0.472-0.629,0.66-0.982c1.012-1.91,2.648-3.359,3.83-5.146C35.153,109.669,35.306,109.671,35.407,109.641z
		 M117.225,49.675c0.249-0.752,0.475-2.906,0.395-3.353c-0.057-0.31-0.228-0.492-0.508-0.607c-1.082-0.442-2.562,0.228-2.757,1.364
		c-0.197,1.153-0.712,2.274-0.327,3.519c0.137,0.443,0.138,1.147-0.286,1.473c-1.374,1.054-0.842,2.43-0.749,3.737
		c0.043,0.605,0.183,1.141,1.016,0.916c0.734-0.199,1.148-0.523,0.785-1.371c-0.136-0.315-0.131-0.699-0.144-1.053
		c-0.01-0.274,0.007-0.61,0.387-0.628c0.29-0.014,0.357,0.258,0.439,0.488c0.397,1.118,1.265,1.648,2.343,2.025
		c0.57,0.2,1.244-0.011,1.76,0.369c-0.118,0.352-0.338,0.334-0.526,0.343c-1.964,0.095-3.99-0.086-5.6,1.436
		c-0.346,0.328-0.853,0.383-1.316,0.517c-3.995,1.146-7.046,3.52-8.908,7.252c-0.645,1.291-1.264,2.584-2.191,3.676
		c-0.741,0.874-0.668,1.626-0.012,2.439c0.225,0.279,0.515,0.516,0.695,0.819c0.447,0.75,1.017,0.771,1.563,0.216
		c1.867-1.897,4.553-2.374,6.645-3.941c2.366-1.772,4.268-3.795,5.438-6.507c0.6-1.39,0.966-2.876,1.729-4.197
		c0.159-0.273,0.36-0.65,0.695-0.563c0.482,0.126,0.17,0.513,0.094,0.78c-0.144,0.501-0.063,0.868,0.534,0.668
		c0.978-0.325,1.985-0.519,2.964-0.886c1.551-0.581,3.146-0.865,4.652-1.766c0.913-0.546,1.839-0.87,2.337-1.869
		c0.146-0.293,0.355-0.715,0.669-0.475c0.794,0.611,0.778-0.09,0.887-0.495c0.758-2.82,2.042-5.453,3.043-8.181
		c1.09-2.972,0.556-5.995,1.056-8.955c0.054-0.318-0.119-0.658-0.479-0.746c-0.36-0.089-0.498,0.241-0.581,0.486
		c-0.386,1.137-1.104,1.062-2.098,0.806c-0.828-0.214-0.906-0.926-1.366-1.365c-0.597-0.568-0.343-0.771,0.275-0.933
		c0.284-0.075,0.748-0.05,0.568-0.542c-0.174-0.474-0.607-0.549-0.98-0.268c-0.496,0.374-1.077,0.234-1.585,0.389
		c-0.996,0.304-2.276,0.014-2.946,0.957c-0.452,0.637-0.73,0.463-1.089,0.126c-0.74-0.697-1.786-0.64-2.609-1.124
		c-0.213-0.125-0.481-0.117-0.593,0.18c-0.092,0.245,0.119,0.315,0.276,0.443c1.323,1.077,1.97,2.544,2.344,4.158
		c0.071,0.308,0.178,0.81-0.103,0.893c-1.137,0.339-0.66,1.155-0.656,1.85c0.003,0.394,0.107,0.884-0.227,1.141
		c-1.476,1.131-1.707,3.118-3.065,4.342c-0.489,0.441-0.465,1.188-0.136,1.795c0.231,0.426,0.688,0.602,1.141,0.457
		c0.833-0.268,1.678-0.547,2.451-0.949c0.717-0.372,0.771-0.902-0.03-1.315c-0.27-0.14-0.665-0.129-0.641-0.575
		c0.012-0.229,0.194-0.333,0.388-0.407c0.378-0.144,0.757-0.086,0.975,0.237c0.962,1.434,2.434,2.262,3.758,3.276
		c1.19,0.91,1.259,2.419,0.231,3.393c-0.247,0.233-0.224,0.495-0.215,0.768c0.014,0.482-0.238,0.785-0.562,1.125
		c-1.157,1.213-2.921,1.254-4.192,2.23c-0.127,0.097-0.348,0.052-0.41-0.11c-0.048-0.126-0.021-0.318,0.044-0.443
		c0.177-0.338,0.608-0.401,0.831-0.649c0.638-0.71,1.944-0.611,2.251-1.952c-0.672,0.32-1.282,0.051-1.854,0.244
		c-0.566,0.191-1.108,0.454-1.67,0.66c-1.816,0.668-4.151-0.136-5.396-1.596c-1.355-1.59-0.978-3.443-1.078-5.232
		c-0.02-0.362,0.35-0.617,0.726-0.708c0.4-0.097,0.579,0.172,0.709,0.486C116.613,48.829,116.685,49.326,117.225,49.675z
		 M19.034,104.383c0.037,0.128,0.055,0.336,0.151,0.498c0.849,1.429,1.1,3.052,1.507,4.622c0.599,2.31,1.047,4.696,2.103,6.825
		c1.219,2.458,2.213,5.06,4.113,7.159c1.332,1.473,2.355,3.229,3.724,4.661c3.103,3.247,6.726,5.84,10.676,7.98
		c0.818,0.442,1.518,0.675,2.173-0.261c0.364-0.52,1.544-0.256,1.505-0.888c-0.047-0.757-1.121-0.504-1.706-0.82
		c-2.431-1.311-4.556-2.993-6.643-4.787c-4.755-4.087-8.336-8.942-10.487-14.862c-1.485-4.088-2.96-8.146-3.4-12.534
		c-0.388-3.872,0.091-7.649,0.701-11.434c0.272-1.688,1.439-3.216,0.882-5.065c-0.065-0.215,0.117-0.548,0.264-0.775
		c2.442-3.773,4.14-7.963,6.573-11.742c0.375-0.582,0.778-1.059,1.454-1.348c0.958-0.41,1.542-1.248,1.973-2.167
		c0.176-0.377,0.466-0.864-0.034-1.182c-0.409-0.26-0.719,0.106-1.03,0.372c-3.513,3.005-6.395,6.541-8.65,10.558
		c-2.046,3.646-3.467,7.503-4.359,11.641c-0.81,3.758-0.824,7.511-0.986,11.281C19.504,102.903,19.114,103.561,19.034,104.383z
		 M95.786,101.422c-0.241,0.878-1.001,0.73-1.473,1.033c-0.192,0.123-0.48,0.176-0.451,0.481c0.023,0.25,0.294,0.221,0.446,0.328
		c1.232,0.87,2.305,0.405,3.347-0.376c0.265-0.199,0.613-0.403,0.046-0.635c-0.252-0.103-0.644-0.061-0.36-0.494
		c0.184-0.281,0.47-0.464,0.816-0.278c0.246,0.132,0.522,0.422,0.752,0.284c1.11-0.669,1.222,0.239,1.573,0.89
		c0.163,0.301,0.52,0.496,0.819,0.768c0.589-1.692-0.374-3.101-0.369-4.615c0.004-1.073-0.809-0.129-1.4-0.299
		c0.649-1.056-0.117-1.735-0.54-2.563c-1.695-3.32-4.285-5.701-7.579-7.339c-2.253-1.119-3.794-0.692-5.733,0.756
		c-1.135,0.848-0.775,1.96-0.914,2.858c-0.106,0.687,1.254,0.396,1.925,0.654c0.065,0.025,0.113,0.095,0.162,0.137
		c-0.101,0.269-0.32,0.555-0.262,0.76c0.185,0.639,0.226,0.626-0.606,0.572c-0.119-0.008-0.241-0.013-0.359-0.001
		c-0.229,0.022-0.534-0.01-0.521,0.327c0.009,0.222,0.242,0.276,0.453,0.301c0.415,0.048,1.016-0.044,0.698,0.701
		c-0.325,0.764,0.101,0.678,0.611,0.629c0.265-0.025,0.931-0.302,0.623,0.392c-0.377,0.849,0.194,0.669,0.596,0.679
		c0.804,0.02,1.535-0.382,2.338-0.45c-0.135,0.176-0.287,0.306-0.462,0.361c-0.714,0.224-1.348,0.854-1.246,1.399
		c0.12,0.65,0.968-0.033,1.471,0.184c0.105,0.465-0.809,0.49-0.491,0.927c0.362,0.497,0.978-0.08,1.416,0.107
		c-0.216,1.766,1.362,1.032,2.03,1.45c0.041,0.391-0.599,0.49-0.323,0.847c0.252,0.327,0.663,0.221,0.996,0.066
		C94.421,101.982,94.954,101.531,95.786,101.422z M110.865,16.238c0.091,0.083,0.173,0.165,0.263,0.237
		c0.254,0.207,0.325,0.795,0.775,0.562c0.39-0.203,0.129-0.64,0.064-0.979c-0.12-0.628-0.244-1.259-0.137-1.901
		c0.043-0.257,0.032-0.64,0.447-0.544c0.293,0.068,0.233,0.369,0.193,0.606c-0.019,0.118-0.051,0.234-0.067,0.353
		c-0.231,1.688,0.241,2.514,1.777,3.108c0.216,0.083,0.486,0.038,0.476-0.173c-0.07-1.348,0.289-1.255,1.327-0.659
		c0.381,0.218,0.661,0.326,0.903,0.729c0.293,0.488,0.726,0.421,1.039-0.058c0.162-0.248-0.063-0.652,0.3-0.828
		c0.422,0.119,0.627,0.804,1.117,0.528c0.387-0.219,0.12-0.737,0.184-1.116c0.06-0.353-0.047-0.75,0.376-1.22
		c0,0.637-0.078,1.087,0.021,1.494c0.099,0.404-0.069,1.182,0.607,1.065c0.41-0.07,0.687-0.703,0.638-1.263
		c-0.014-0.159-0.021-0.327-0.08-0.472c-0.472-1.169,0.06-2.299,0.136-3.445c0.016-0.245,0.084-0.585,0.623-0.432
		c-0.278,1.443-0.022,2.91-0.106,4.376c-0.021,0.377-0.081,0.8,0.365,0.884c0.507,0.096,0.642-0.346,0.753-0.75
		c0.086-0.314-0.134-0.728,0.266-0.946c0.462,0.198,0.082,1.174,0.82,0.953c0.552-0.166,0.35-0.795,0.386-1.265
		c0.076-0.991,0.201-1.979,0.338-2.965c0.09-0.652,0.258-1.056,1.133-0.719c0.59,0.227,1.341,0.132,1.994-0.146
		c0.433-0.185,1.022-0.249,1.082-0.806c0.061-0.573-0.401-0.942-0.868-1.182c-1.944-0.999-4.022-1.447-6.205-1.471
		c-1.771-0.02-3.493,0.411-5.169,0.833c-2.648,0.667-5.118,1.82-6.796,4.16c-0.524,0.731-0.829,1.557-0.838,2.454
		c-0.008,0.789,0.636,1.289,1.143,1.683C110.608,17.284,110.504,16.385,110.865,16.238z M134.275,92.327
		c-0.551,1.636-1.152,3.156-1.56,4.728c-0.28,1.084-0.72,2.068-1.131,3.091c-0.6,1.49-1.015,3.154-0.362,4.834
		c0.565,1.455,1.957,2.28,2.662,3.639c0.25,0.48,0.686,0.058,0.975-0.227c0.741-0.731,1.542-1.395,2.483-1.85
		c1.086-0.524,1.918-1.301,2.38-2.406c0.272-0.655,0.639-0.986,1.359-0.825c0.426,0.095,0.717,0.027,0.657-0.516
		c-0.099-0.883,0.329-1.438,1.122-1.762c0.625-0.255,0.685-0.608,0.162-1.049c-0.996-0.842-1.445-2.163-2.737-2.808
		c-0.646-0.321-1.53-0.809-1.813-1.455C137.636,93.812,135.693,93.48,134.275,92.327z M132.611,13.373
		c-0.323,0.496-0.506,0.974-1.035,1.063c-0.351,0.059-0.801,0.037-1.021,0.246c-0.459,0.438,0.139,0.544,0.363,0.756
		c-0.106,0.1-0.311,0.205-0.306,0.3c0.037,0.711-1.301,0.838-0.738,1.752c0.364,0.592,0.305,1.179,0.105,1.827
		c-0.263,0.853,0.139,1.192,1.008,1.055c0.629-0.099,1.386-0.404,1.873-0.172c1.271,0.605,2.717,0.628,3.938,1.316
		c1.561,0.879,3.156,1.716,4.415,3.028c0.413,0.431,0.561,1.625,1.379,0.884c0.57-0.518,1.583-0.408,1.726-0.963
		c0.321-1.251,1.68-1.964,1.605-3.361c-0.003-0.067,0.06-0.147,0.108-0.208c0.324-0.398,1.038-0.676,0.477-1.36
		c-0.353-0.43-0.421-1.111-0.979-1.324c-0.55-0.209-0.925-0.67-1.492-0.913c0.821,0.907,0.069,1.46-0.366,2.087
		c-0.213,0.307-0.413,0.696-0.806,0.287c-0.266-0.276-0.514-0.499-0.048-1.045c0.869-1.018,1.112-1.681-0.342-2.52
		c-0.831-0.479-1.65-0.975-2.489-1.44c-0.417-0.231-0.868-0.452-1.365-0.288c-0.869,0.287-1.558-0.163-2.157-0.627
		c-0.972-0.752-1.653-0.69-2.18,0.471c-0.345,0.76-0.796,1.004-1.476,0.553C132.345,14.47,133.01,13.962,132.611,13.373z
		 M124.581,130.125c-0.001-0.309-0.162-0.438-0.369-0.455c-0.943-0.076-1.917-0.323-2.713,0.485
		c-0.838,0.853-1.728,1.657-2.538,2.535c-1.497,1.623-3.23,2.963-5.091,4.108c-1.796,1.107-3.685,2.068-5.564,3.031
		c-2.665,1.365-5.087,3.127-7.681,4.604c-2.204,1.256-4.554,2.254-6.627,3.745c-0.9,0.647-1.828,1.257-2.728,1.906
		c-0.282,0.203-0.955,0.166-0.721,0.729c0.211,0.505,0.607,0.816,1.327,0.585c1.449-0.465,2.779-1.148,4.104-1.873
		c2.54-1.391,5.058-2.834,7.672-4.071c1.765-0.834,3.286-2.291,5.411-2.294c0.134,0,0.309-0.123,0.396-0.24
		c0.724-0.978,1.814-1.459,2.786-2.104c2.262-1.501,4.877-2.377,6.94-4.27c1.959-1.798,3.708-3.723,5.143-5.947
		C124.435,130.437,124.513,130.253,124.581,130.125z M100.763,151.947c-0.422-0.292-1.064,0.204-1.12-0.319
		c-0.062-0.588,0.617-0.478,0.998-0.56c0.465-0.101,0.954-0.08,1.432-0.12c0.4-0.034,0.911-0.019,1.113-0.351
		c0.587-0.963,1.57-0.982,2.477-1.16c1.827-0.359,3.084-1.889,4.867-2.324c0.033-0.008,0.058-0.054,0.088-0.08
		c0.751-0.669,1.491-1.356,2.638-1.021c0.2,0.058,0.405-0.02,0.523-0.205c0.574-0.897,1.586-1.159,2.415-1.689
		c1.674-1.072,3.591-1.676,5.201-2.905c1.692-1.293,3.261-2.656,4.545-4.368c0.523-0.697,0.42-1.746,1.008-2.205
		c1.469-1.146,2.461-2.424,2.907-4.308c0.229-0.96-0.006-1.146-0.673-1.481c-0.804-0.402-1.323-0.2-1.538,0.635
		c-0.428,1.664-1.59,2.934-2.372,4.403c-0.504,0.948-1.123,1.957-2.039,2.629c-1.686,1.235-2.996,2.915-5.024,3.781
		c-0.9,0.385-1.836,0.912-2.732,1.412c-2.145,1.199-4.313,2.395-6.535,3.412c-2.386,1.094-4.549,2.562-6.877,3.74
		c-0.879,0.444-1.907,1.104-2.595,1.938c-0.474,0.575-0.999,0.832-1.66,1.044c-2.439,0.78-4.632,2.105-6.912,3.233
		c-0.322,0.159-0.848,0.395-0.652,0.867c0.188,0.454,0.804,0.337,1.063,0.17c1.163-0.748,2.505-0.925,3.775-1.325
		c0.037-0.012,0.094-0.029,0.103-0.056c0.307-0.98,1.209-0.879,1.947-1.076c0.192-0.052,0.482-0.071,0.552-0.2
		C98.329,152.266,99.6,152.381,100.763,151.947z M123.656,123.462c1.94,0.694,3.399-0.953,5.175-0.892
		c0.13,0.004,0.298-0.249,0.398-0.412c0.914-1.476,0.371-3.281-0.33-4.2c-1.061-1.39-1.623-3.788-4.165-3.597
		c-0.102,0.008-0.22-0.09-0.316-0.157c-2.075-1.443-4.244-1.416-6.474-0.416c-0.38,0.17-0.705,0.416-0.762,0.853
		c-0.034,0.263,0.164,0.452,0.405,0.529c0.482,0.154,0.848-0.117,1.192-0.392c0.119-0.095,0.177-0.264,0.277-0.388
		c0.147-0.183,0.317-0.434,0.573-0.215c0.227,0.193,0.076,0.451-0.056,0.646c-0.447,0.666-0.951,1.318-1.651,1.699
		c-0.975,0.53-0.954,1.531-1.209,2.361c-0.204,0.666,0.725,0.6,1.006,1.005c0.064,0.093,0.118,0.191,0.241,0.394
		c0.653-1.562,2.016-2.415,3.025-3.58c0.225-0.26,0.504-0.45,0.83-0.2c0.372,0.284,0.257,0.633,0.023,0.948
		c-0.142,0.191-0.319,0.356-0.47,0.542c-0.629,0.771-1.397,1.435-1.86,2.333c-0.248,0.482-0.626,1.163-0.052,1.468
		c0.547,0.29,1.275,0.089,1.501-0.731c0.031-0.115,0.064-0.239,0.134-0.332c0.851-1.144,1.79-2.15,3.373-2.142
		c0.282,0.002,0.587-0.03,0.737,0.272c0.188,0.381-0.088,0.621-0.352,0.787c-0.4,0.252-0.894,0.378-1.254,0.672
		c-0.566,0.463-1.726,1.093-1.429,1.512c0.434,0.614,1.299-0.151,1.932-0.503c0.035-0.02,0.065-0.048,0.103-0.062
		c0.502-0.194,1.164-0.647,1.442,0.061c0.229,0.584-0.091,1.247-0.841,1.5C124.411,122.959,123.911,122.907,123.656,123.462z
		 M88.841,23.503c-0.394,0.826-0.907,0.725-1.24,0.239c-0.396-0.578-0.651-1.255-0.944-1.901c-0.062-0.136-0.016-0.336,0.178-0.37
		c0.095-0.016,0.27,0.045,0.304,0.12c0.654,1.421,1.553,0.894,2.655,0.526c3.656-1.219,7.364-2.28,11.055-3.396
		c0.401-0.122,0.863-0.262,0.702-0.767c-0.159-0.499-0.645-0.376-1.027-0.236c-1.05,0.384-2.116,0.698-3.192,1.003
		c-2.291,0.649-4.563,1.374-6.816,2.145c-1.621,0.555-2.334,0.485-3.468-0.825c-0.765-0.884-1.642-1.001-2.562-0.5
		c-0.556,0.303-0.929,0.454-1.484,0.03c-0.416-0.318-0.939-0.174-1.326,0.169c-0.317,0.282-0.42,0.638-0.233,1.081
		c0.247,0.586,0.147,1.114-0.232,1.677c-0.595,0.882,0.059,1.677,0.411,2.441c0.152,0.331,0.459,0.141,0.646-0.136
		c0.522-0.781,0.457-1.556,0.081-2.382c-0.261-0.574-0.271-1.147,0.314-1.614c0.58-0.462,1.121-0.512,1.72-0.016
		c-0.111,0.258-0.354,0.309-0.565,0.411c-0.33,0.16-0.93,0.084-0.847,0.648c0.083,0.573,0.58,0.822,1.132,0.891
		c0.235,0.029,0.479-0.002,0.718,0.004c0.258,0.006,0.585,0.118,0.464,0.382c-0.31,0.676,0.412,1.634-0.64,2.116
		c-0.36,0.165-0.397,0.653-0.39,1.074c0.012,0.552-0.146,1.06-0.431,1.537c-0.507-0.3-0.199-0.816-0.54-1.173
		c-0.556,0.633-1.414,0.96-1.435,2.037c-0.009,0.425-0.013,1.239-0.671,1.215c-0.655-0.023-0.577-0.858-0.826-1.326
		c-0.087-0.166,0.044-0.458,0.101-0.686c0.069-0.28,0.008-0.493-0.294-0.531c-0.719-0.092-1.438-0.159-2.05,0.374
		c-0.419,0.365-0.41,0.871-0.121,1.183c0.545,0.59,0.1,1.853,1.41,1.92c2.645,0.137,5.088-0.008,7.073-2.232
		C87.763,27.189,89.145,25.938,88.841,23.503z M118.099,63.256c-0.362,0.246-0.663,0.054-0.968,0.012
		c-0.371-0.051-0.766-0.059-0.91,0.359c-0.17,0.491,0.271,0.634,0.593,0.728c0.953,0.277,1.677,0.899,2.4,1.519
		c0.579,0.496,1.188,0.942,1.88,1.258c1.625,0.742,3.203,1.611,5.004,1.887c1.207,0.185,2.376,0.115,3.501-0.439
		c1.339-0.658,2.81-0.454,4.229-0.593c0.416-0.041,1.004-0.024,1.14-0.496c0.161-0.559-0.501-0.61-0.809-0.878
		c-0.403-0.353-0.9-0.494-1.412-0.606c-2.421-0.532-4.794-1.146-6.706-2.897c-0.971-0.889-2.219-1.293-3.522-1.315
		c-1.785-0.03-3.571,0.054-5.357,0.1c-0.034,0-0.065,0.124-0.11,0.215C117.282,62.562,117.999,62.574,118.099,63.256z
		 M140.183,39.958c0.952-0.596,1.119,0.047,1.016,0.616c-0.187,1.023-0.417,1.986,0.422,2.848c0.272,0.279,0.08,0.572-0.089,0.867
		c-0.257,0.447-0.449,0.932-0.675,1.397c-0.133,0.273-0.218,0.552,0.117,0.718c0.291,0.144,0.583,0.213,0.834-0.148
		c0.488-0.703,0.572-1.622,1.22-2.239c0.067-0.065,0.098-0.263,0.05-0.341c-0.566-0.937,0.155-1.652,0.421-2.435
		c0.114-0.335,0.363-0.631,0.277-1.014c-0.312-1.374,0.083-2.758-0.148-4.166c-0.227-1.378-0.579-2.319-1.745-2.46
		c-1.092-0.132-2.19-0.178-3.287-0.315c-1.749-0.22-3.562,0.171-5.245-0.718c-0.419-0.221-0.985-0.188-1.467-0.057
		c-0.033,0.278,0.136,0.322,0.265,0.405c1.528,0.985,3.283,1.122,5.014,1.302c1.023,0.107,2.361,1.177,2.154,2.033
		c-0.261,1.076,0.49,1.453,1.104,1.675c0.638,0.231,0.504,0.465,0.334,0.849C140.596,39.13,140.417,39.476,140.183,39.958z
		 M123.942,69.453c-0.325-0.062-0.547-0.045-0.69-0.143c-1.435-0.973-2.696-0.906-3.765,0.56c-0.14,0.191-0.351,0.162-0.533,0.04
		c-0.424-0.285-0.84-0.099-1.267-0.005c-3.291,0.721-6.639,1.226-9.741,2.651c-0.593,0.272-1.642,0.292-1.46,1.087
		c0.204,0.89,1.221,0.503,1.857,0.376c4.605-0.921,9.199-1.897,13.797-2.852c0.533-0.11,1.013-0.292,1.389-0.738
		c-0.438-0.303-0.944,0.052-1.296-0.337C122.692,69.619,123.38,70.09,123.942,69.453z M121.96,144.328
		c1.286-0.445,2.505-0.682,3.719-1.61c1.844-1.41,3.417-2.959,4.781-4.771c0.809-1.074,1.627-2.181,2.18-3.393
		c0.338-0.739,0.381-1.57,1.21-2.026c0.355-0.195,0.349-0.616,0.223-0.974c-0.146-0.417-0.525-0.43-0.894-0.449
		c-0.833-0.043-1.253,0.608-1.553,1.152c-0.968,1.756-1.869,3.511-3.282,5.007c-0.754,0.797-1.383,1.726-2.252,2.438
		c-0.673,0.55-1.599,1.015-1.908,1.734C123.67,142.631,122.797,143.403,121.96,144.328z M105.414,136.12
		c1.229,0.013,2.188-0.064,2.69,0.955c0.142,0.287,0.337,0.21,0.582,0.052c2.388-1.556,4.728-3.19,7.307-4.436
		c0.901-0.435,1.341-1.04,0.457-1.941c-0.198-0.202-0.312-0.498-0.13-0.769c0.221-0.327,0.547-0.256,0.86-0.135
		c0.184,0.072,0.366,0.216,0.549,0.214c0.442-0.007,0.689-0.366,0.942-0.664c0.148-0.174,0.068-0.357-0.121-0.502
		c-0.616-0.469-2.133-0.205-2.524,0.473c-0.83,1.437-1.812,2.573-3.722,2.218c-0.376-0.07-0.959-0.089-1.103,0.284
		c-0.512,1.329-1.843,1.534-2.813,2.231C107.505,134.735,106.401,135.05,105.414,136.12z M105.887,81.79
		c0.468,0.136,0.831-0.147,1.186-0.593c1.656-2.084,3.218-4.25,5.122-6.129c0.186-0.183,0.493-0.383,0.372-0.692
		c-0.13-0.331-0.488-0.226-0.742-0.191c-1.773,0.241-3.562,0.465-5.069,1.554c-0.632,0.456-1.287,0.583-2.035,0.412
		c-0.321-0.074-0.664-0.591-0.938-0.188c-0.245,0.357-0.038,0.857,0.228,1.223c0.232,0.322,0.532,0.594,0.771,0.913
		c0.703,0.942,1.371,1.884,0.567,3.124C105.099,81.604,105.179,81.933,105.887,81.79z M138.288,78.33
		c0.183,0.004,0.365,0.008,0.548,0.012c0.407,3.551-0.347,7.124-0.235,10.877c0.595-0.498,0.497-0.929,0.511-1.31
		c0.039-1.115,0.027-2.233,0.063-3.35c0.015-0.435,0.062-1.022,0.601-1.005c0.472,0.014,0.44,0.583,0.44,0.974
		c-0.003,1.077-0.048,2.146-0.273,3.21c-0.288,1.357-0.227,2.301,0.345,3.04c0-3.257,0-6.515,0-9.728
		c-0.09,0.29-0.267,0.63-0.173,1.044c0.069,0.307,0.198,0.72-0.294,0.721c-0.414,0.001-0.41-0.419-0.411-0.736
		c-0.004-0.993-0.006-1.987,0.014-2.98c0.007-0.312,0.044-0.696,0.511-0.592c0.217,0.048,0.439,0.326,0.516-0.097
		c0.052-0.29-0.072-0.497-0.387-0.648c-0.876-0.421-1.475-1.171-2.083-1.977c-0.288,0.57-0.447,1.109-0.42,1.658
		c0.134,2.6-0.382,5.163-0.388,7.752c-0.001,0.463-0.367,1.307,0.285,1.315c0.561,0.007,0.25-0.855,0.29-1.335
		C137.935,82.894,138.109,80.612,138.288,78.33z M92.359,52.24c-0.273,0.005-0.395,0.24-0.272,0.857
		c0.202,1.026,1.408,2.192,2.491,2.373c0.536,0.089,1.042,0.277,1.355,0.698c0.495,0.665,1.113,0.855,1.886,0.735
		c0.362-0.056,0.712-0.012,1.061,0.116c0.315,0.117,0.665,0.529,0.969,0.189c0.333-0.373,0.025-0.801-0.129-1.217
		c-0.594-1.604-2.094-1.984-3.424-2.567C95.088,52.895,93.836,52.471,92.359,52.24z M86.368,32.209
		c-0.002-1.377-0.189-1.51-1.402-1.066c-0.224,0.082-0.426,0.24-0.653,0.289c-1.574,0.333-3.13,0.767-4.777,0.639
		c-0.476-0.037-1.208-0.798-1.398,0.009c-0.165,0.701,0.232,1.562,1.022,1.978c0.273,0.144,0.603,0.191,0.912,0.253
		c1.787,0.36,3.46-0.166,5.148-0.638C86.054,33.439,86.656,33.131,86.368,32.209z M122.4,28.876c0-0.628,0.002-1.257-0.001-1.886
		c-0.002-0.356-0.073-0.816,0.374-0.887c0.436-0.07,0.49,0.431,0.683,0.716c0.271,0.401-0.032,1.136,0.415,1.276
		c1.314,0.414,2.079,1.536,3.164,2.214c1.151,0.719,2.307,1.528,3.774,1.58c-0.979-0.583-1.858-1.286-2.764-1.953
		c-1.674-1.233-3.519-2.274-4.497-4.239c-0.274-0.552-0.533-1.112-0.888-1.854c0.054,1.763-0.092,2.042-1.619,1.977
		c-0.778-0.033-1.347,0.038-1.85,0.763c-0.223-0.558,0.264-1.036-0.145-1.387c-0.177-0.152-0.174-0.66-0.579-0.388
		c-0.225,0.15-0.432,0.545-0.184,0.717c0.709,0.492,0.319,0.913,0.047,1.404c-0.256,0.462-0.319,0.986-0.295,1.511
		c0.017,0.336-0.088,0.736,0.495,0.759c0.654,0.027,1.331,0.328,1.903-0.226c0.113-0.109,0.145-0.351-0.042-0.401
		c-1.085-0.293-0.375-0.86-0.255-1.375c0.115-0.496,0.189-1.024,0.853-0.862c0.556,0.136,0.992,0.45,0.962,1.172
		C121.934,27.96,121.733,28.46,122.4,28.876z M108.071,108.095c-0.404-0.041-0.499,0.175-0.602,0.401
		c-0.246,0.544-0.157,1.032,0.297,1.4c0.985,0.8,2.098,1.472,2.967,2.38c0.874,0.913,1.858,1.587,2.969,2.121
		c0.349,0.167,0.604,0.408,0.729,0.747c0.283,0.773,0.931,1.159,1.557,1.586c0.311,0.212,0.6,0.447,0.936,0.078
		c0.357-0.394,0.143-0.72-0.144-1.042c-0.757-0.856-1.501-1.706-2.409-2.433c-2.005-1.604-3.924-3.313-5.882-4.976
		C108.34,108.234,108.161,108.15,108.071,108.095z M112.84,48.127c0.016-1.708,1.211-2.739,2.146-3.916
		c0.343-0.432,0.678-0.253,1.058-0.092c0.91,0.386,1.801,0.864,2.858,0.563c0.294-0.084,0.693,0.035,0.775-0.384
		c0.085-0.437-0.313-0.449-0.589-0.601c-0.614-0.337-1.371-0.477-1.756-1.156c-0.127-0.225-0.448-0.484-0.175-0.733
		c0.31-0.282,0.492,0.098,0.653,0.287c0.693,0.812,1.717,0.64,2.595,0.949c-1.349-0.668-2.539-1.551-3.402-2.719
		c-0.57-0.771-0.743-0.339-0.922,0.102c-0.449,1.111-1.201,2.068-1.926,2.937C112.949,44.814,112.746,46.389,112.84,48.127z
		 M53.988,140.313c0.605-0.099,1.155-0.193,1.706-0.273c0.232-0.033,0.518,0.008,0.494-0.347c-0.016-0.232-0.04-0.516-0.286-0.62
		c-0.25-0.104-0.533-0.143-0.805-0.186c-2.326-0.368-4.542-1.161-6.643-2.146c-0.932-0.437-1.811,0.114-2.63-0.359
		c-0.117-0.068-0.28,0.183-0.25,0.335c0.087,0.444,0.609,0.444,0.841,0.771c0.149,0.21,0.416,0.272,0.565-0.045
		c0.349-0.74,0.493-0.159,0.659,0.104c0.352,0.561,0.452,1.341,1.167,1.59C50.502,139.729,52.269,140.028,53.988,140.313z
		 M108.633,71.484c0.226,0.189,0.395,0.104,0.585,0.05c2.176-0.614,4.336-1.307,6.543-1.786c1.122-0.244,1.825-0.908,2.547-1.645
		c0.26-0.264,0.387-0.534-0.165-0.653c-2.003-0.433-3.967-0.653-5.539,1.066c-0.489,0.536-1.094,0.925-1.605,1.414
		C110.308,70.59,109.261,70.687,108.633,71.484z M105.294,57.418c-0.565,0.027-1.023,1.124-1.41,0.221
		c-0.276-0.646-0.974-0.686-1.201-1.222c-0.19-0.45,0.673-1.712,1.1-1.659c0.273,0.034,0.579,0.197,0.752-0.112
		c0.189-0.337-0.102-0.587-0.264-0.854c-1.023-1.682-2.784-2.158-4.48-2.73c-0.326-0.11-0.771-0.322-0.998,0.026
		c-0.262,0.4,0.1,0.776,0.384,1.031c0.837,0.747,1.688,1.485,2.124,2.545c0.517,1.255,1.013,2.501,2.079,3.426
		c0.364,0.316,0.689,0.802,1.193,0.643C105.111,58.561,105.124,57.959,105.294,57.418z M134.376,56.807
		c0.599,0,1.2,0.036,1.795-0.012c0.38-0.031,0.574-0.2,0.261-0.633c-1.119-1.542-3.263-1.965-4.899-0.928
		c-0.643,0.407-1.314,0.74-2.022,1.028c-0.771,0.313-1.497,0.739-2.229,1.14c-0.196,0.107-0.439,0.292-0.235,0.563
		c0.138,0.182,0.367,0.104,0.551,0.017C129.748,56.961,132.09,57.04,134.376,56.807z M124.454,54.259
		c0.382-0.651,1.403-0.433,1.492-1.297c0.091-0.894-0.2-1.638-0.871-2.236c-0.671-0.597-1.371-0.804-2.296-0.523
		c-0.983,0.299-1.682,1.097-2.992,1.313c1.255,0.575,2.014,1.567,3.187,1.503C123.911,52.968,124.329,53.271,124.454,54.259z
		 M135.219,38.824c-0.324,3.684-1.238,6.995-2.377,10.268c0.537-0.839,1.133-1.594,1.331-2.615c0.079-0.411-0.143-2.021,1.278-0.941
		c0.056,0.042,0.295-0.031,0.297-0.061c0.05-0.764,1.088-1.007,1.008-1.775C136.585,42.058,136.515,40.369,135.219,38.824z
		 M107.761,55.44c-0.412-0.02-0.527,0.296-0.646,0.593c-0.192,0.479-0.287,1.001-0.657,1.397c-0.4,0.426-0.826,1.017-0.304,1.44
		c0.621,0.504,1.318,1.387,2.304,0.729c0.709-0.473,1.315-1.101,1.954-1.675c0.167-0.149,0.118-0.358,0.035-0.556
		C110.321,57.067,108.08,55.448,107.761,55.44z M135.143,129.354c0.158-1.088-0.135-2.059,0.152-2.984
		c0.286-0.919,0.477-1.84,0.27-2.804c-0.093-0.432,0.213-1.126-0.422-1.209c-0.588-0.076-1.134,0.281-1.361,0.945
		C133.082,125.353,132.701,127.674,135.143,129.354z M111.314,50.218c0.135-1.313,0.259-2.482,0.375-3.653
		c0.196-1.966-0.254-2.587-2.194-2.947c-0.438-0.082-1.057-0.457-1.306,0.04c-0.212,0.42,0.101,1.024,0.471,1.39
		c1.1,1.086,1.43,2.54,1.948,3.905C110.759,49.35,110.757,49.818,111.314,50.218z M131.292,27.622
		c0.465,0.301,0.836,0.075,1.208-0.005c0.424-0.09,0.969-0.057,1.051,0.331c0.348,1.642,1.078,1.14,1.914,0.435
		c0.113-0.095,0.299-0.102,0.449-0.154c0.694-0.239,0.685-0.594,0.141-0.994c-0.318-0.233-0.702-0.375-0.872-0.781
		c-0.308-0.739-1.001-1.2-1.816-1.241c-0.158-0.008-0.316-0.035-0.474-0.063c-0.388-0.067-0.669,0.088-0.669,0.476
		C132.224,26.435,131.741,27.017,131.292,27.622z M89.465,151.875c-1.679,0.329-3.455,1.275-5.283,2.078
		c-0.07,0.031-0.133,0.091-0.184,0.15c-0.116,0.138-0.096,0.274-0.011,0.432c0.422,0.775,1.489,1.093,2.286,0.611
		c1.422-0.857,3.042-1.362,4.343-2.438c0.152-0.126,0.362-0.212,0.345-0.441c-0.02-0.266-0.254-0.257-0.445-0.279
		C90.279,151.96,90.042,151.937,89.465,151.875z M125.573,85.033c0.646-0.718,1.083-1.367,1.332-2.141
		c0.563-1.748,1.232-3.448,2.31-4.957c0.368-0.517,0.731-1.038,1.095-1.559c0.145-0.208,0.257-0.454,0.002-0.622
		c-0.205-0.136-0.37,0.065-0.482,0.227c-0.385,0.556-0.76,1.119-1.136,1.681c-0.358,0.536-0.458,1.515-1.513,0.769
		c-0.247-0.174-0.457,0.184-0.611,0.431c-0.355,0.571-0.435,1.286-0.954,1.776c-0.157,0.148-0.115,0.406,0.085,0.512
		c0.206,0.109,0.389-0.042,0.491-0.221c0.234-0.412,0.444-0.839,0.671-1.256c0.111-0.206,0.229-0.493,0.519-0.354
		c0.331,0.159,0.271,0.47,0.08,0.707c-0.299,0.369-0.778,0.641-0.858,1.124c-0.154,0.933-0.619,1.44-1.717,1.396
		C126.014,83.159,125.16,84.158,125.573,85.033z M106.37,49.224c-0.203,0.267,0.45,0.669-0.127,0.887
		c-0.247,0.093-0.435,0.272-0.256,0.54c0.183,0.273,0.476,0.212,0.758,0.143c0.316-0.078,0.254-0.62,0.684-0.546
		c0.014,0.539,1.224,1.972,1.746,2.028c0.42,0.046,0.896-0.072,0.971-0.506c0.206-1.199-0.181-2.312-0.967-3.185
		c-0.607-0.673-1.479-0.474-2.284-0.294c0.088,0.514,0.771,0.408,0.737,0.951C107.209,49.546,106.795,49.089,106.37,49.224z
		 M133.486,118.893c-0.31-1.417-1.047-2.733-2.065-3.82c-0.569-0.607-1.142-1.328-2.01-1.616c-0.317-0.104-0.666-0.196-0.837,0.169
		c-0.19,0.407,0.149,0.535,0.457,0.668c0.252,0.108,0.499,0.245,0.72,0.407c2.123,1.563,2.643,3.779,2.506,6.248
		c-0.013,0.228-0.201,0.51,0.063,0.637c0.331,0.158,0.488-0.168,0.631-0.396C133.371,120.518,133.254,119.724,133.486,118.893z
		 M123.042,33.514c-0.053,0.282-0.101,0.607,0.204,0.738c0.356,0.153,0.431-0.231,0.6-0.429c0.188-0.219,0.282-0.799,0.611-0.553
		c0.549,0.409,0.867,0.027,1.281-0.125c0.377-0.139,0.816-0.295,1.148-0.028c0.946,0.759,2.164,0.297,3.169,0.765
		c0.154,0.072,0.414,0.03,0.505-0.193c0.093-0.229-0.065-0.391-0.242-0.481c-0.698-0.354-1.326-0.796-2.156-0.946
		c-0.955-0.173-1.9,0.246-2.823-0.104C124.033,31.661,123.207,32.148,123.042,33.514z M128.612,58.777
		c-1.723-0.051-3.312,0.399-4.779,1.259c-0.312,0.183-0.969,0.171-0.872,0.638c0.105,0.509,0.76,0.48,1.204,0.612
		c0.182,0.054,0.423,0.078,0.584,0.003C126.135,60.642,127.602,60.122,128.612,58.777z M131.961,53.606
		c1.517-0.066,3.99-1.433,4.795-2.636c0.201-0.301,0.18-0.486-0.166-0.653c-0.631-0.305-1.565,0.032-1.783,0.67
		c-0.426,1.243-1.228,1.581-2.428,0.975c-0.275-0.139-0.455-0.149-0.584,0.105c-0.213,0.417-0.584,0.802-0.442,1.321
		C131.432,53.683,131.72,53.635,131.961,53.606z M128.663,27.509c0.385-1.269,0.375-1.277,1.331-2.285
		c0.406-0.428,0.466-0.726-0.184-0.93c-0.261-0.082-0.501-0.227-0.759-0.323c-0.338-0.127-2.084,0.566-2.005,0.796
		c0.237,0.692-0.187,1.204-0.513,1.99C127.479,26.434,128.17,26.556,128.663,27.509z M113.092,91.457
		c-0.002-1.155-0.548-1.922-1.318-1.842c-0.798,0.083-1.635,0.167-1.605,1.319c0.024,0.913,0.642,1.562,1.604,1.521
		C112.442,92.428,113.222,92.433,113.092,91.457z M133.644,129.32c-1.152-1.575-2.872-2.485-4.083-3.952
		c-0.346-0.418-0.916-0.169-1.327,0.054c-0.312,0.168-0.213,0.491,0.007,0.709C129.775,127.644,131.677,128.537,133.644,129.32z
		 M117.632,106.219c0.025-0.761-0.565-1.431-1.295-1.469c-0.79-0.04-1.696,0.686-1.685,1.383c0.016,0.949,0.631,1.341,1.475,1.405
		C117.043,107.608,117.546,107.133,117.632,106.219z M124.255,125.225c-0.308,0.028-0.693-0.081-0.959,0.239
		c-0.122,0.147-0.062,0.36,0.119,0.362c1.049,0.013,0.571,0.641,0.499,1.141c-0.074,0.524,1.046,1.592,1.671,1.562
		c0.803-0.039,0.715-0.778,0.788-1.26C126.472,126.616,125.013,125.265,124.255,125.225z M110.566,124.028
		c1.364-1.298,2.648-2.532,0.777-4.374c-0.345,0.366-0.735,0.8-1.147,1.214c-0.439,0.443-0.467,1.112-0.141,1.407
		C110.619,122.783,110.492,123.39,110.566,124.028z M117.123,126.28c0.63,0.055,1.216,0.155,1.794,0.451
		c0.61,0.312,1.407,0.17,1.851-0.42c0.497-0.66,0.644-1.458,0.183-2.248c-0.177-0.303-0.466-0.453-0.8-0.433
		c-0.371,0.022-0.372,0.352-0.419,0.624c-0.186,1.07-0.837,1.575-1.908,1.589C117.553,125.848,117.249,125.83,117.123,126.28z
		 M74.958,55.509c-0.764-1.437-3.401-2.334-4.695-1.667c-0.233,0.12-0.368,0.292-0.362,0.56c0.007,0.316,0.158,0.582,0.466,0.602
		C71.888,55.105,73.376,55.547,74.958,55.509z M70.366,28.382c0.539-0.102,1.078-0.287,1.617-0.288
		c1.111-0.003,1.8-0.61,2.351-1.458c0.285-0.438,0.122-0.75-0.389-0.641c-1.326,0.284-2.601,0.742-3.811,1.361
		c-0.271,0.139-0.433,0.384-0.291,0.692C69.942,28.261,70.092,28.468,70.366,28.382z M124.247,102.738
		c1.336-1.162,1.633-2.681,1.941-4.261c-0.638-0.021-0.609,0.571-0.998,0.613c-0.353-0.18,0.045-0.634-0.354-0.828
		C123.554,99.613,124.299,101.224,124.247,102.738z M131.07,117.769c-0.258-0.785-0.897-1.581-1.636-2.292
		c-0.389-0.373-0.773-1.244-1.354-0.753c-0.469,0.396,0.183,1.068,0.417,1.595c0.031,0.07,0.089,0.142,0.153,0.18
		c0.849,0.5,1.38,1.156,1.248,2.223c-0.028,0.232,0.015,0.629,0.388,0.638c0.297,0.008,0.491-0.27,0.591-0.523
		C130.975,118.582,130.981,118.293,131.07,117.769z M117.368,123.301c0.049-0.587-0.156-0.925-0.792-0.94
		c-0.433-0.012-0.88-0.006-1.23-0.359c-0.168-0.168-0.172-0.671-0.559-0.425c-0.265,0.169-0.314,0.569-0.249,0.881
		c0.081,0.383,0.329,0.738,0.375,1.12c0.076,0.638,0.294,1.152,0.999,1.056C116.65,124.532,117.274,124.163,117.368,123.301z
		 M51.988,143.572c0.461-0.162,0.984-0.335,1.498-0.532c0.178-0.068,0.372-0.179,0.35-0.42c-0.022-0.24-0.229-0.318-0.418-0.355
		c-1.123-0.218-2.247-0.428-3.373-0.623c-0.224-0.039-0.5-0.085-0.65,0.149c-0.153,0.238,0.033,0.44,0.143,0.649
		C50.049,143.416,51.046,143.319,51.988,143.572z M105.629,114.744c-0.469,0.632-1.198,1.189,0.065,1.813
		c0.463,0.229,1.015,0.925,0.683,1.716c-0.098,0.231-0.198,0.503,0.028,0.659c0.687,0.476,0.851,1.392,1.562,1.863
		c0.322-0.421,0.433-0.971,0.175-1.262c-0.795-0.895-0.767-2.224-1.631-3.018C105.965,116.014,105.684,115.484,105.629,114.744z
		 M137.07,75.364c-0.1-0.012-0.2-0.024-0.3-0.036c-0.605,2.57-0.84,5.202-1.12,7.826c-0.024,0.234,0.057,0.537,0.325,0.575
		c0.428,0.059,0.355-0.333,0.396-0.582c0.062-0.392,0.1-0.788,0.134-1.184C136.695,79.764,136.882,77.564,137.07,75.364z
		 M137.02,31.201c0.624,0.397,1.465,0.16,1.864,0.731c0.619,0.883,1.044,0.142,1.422-0.167c0.57-0.466,0.23-1.153-0.101-1.472
		c-0.398-0.383-1.213-0.835-1.632-0.306C138.153,30.516,137.628,30.78,137.02,31.201z M122.105,39.38
		c0.183-1.24-0.096-2.301-1.084-3.069c-0.582-0.452-1.177-0.398-1.753,0.003c-0.235,0.164-0.4,0.415-0.354,0.71
		c0.06,0.378,0.393,0.358,0.657,0.322c0.69-0.095,1.109,0.275,1.489,0.772C121.39,38.553,121.755,38.961,122.105,39.38z
		 M114.977,98.674c-0.108-0.829-0.326-1.659-1.341-1.636c-0.641,0.015-0.987,0.605-1.032,1.247
		c-0.051,0.711,0.819,1.592,1.495,1.563C114.87,99.816,114.918,99.243,114.977,98.674z M79.349,144.066
		c0.878-0.45,2.04-0.645,2.725-1.622c0.232-0.333,0.494-0.867-0.249-0.975c-0.872-0.127-2.763,1.211-3.005,2.062
		C78.719,143.888,78.851,144.064,79.349,144.066z M126.529,113.221c-0.061-0.105-0.168-0.232-0.213-0.379
		c-0.395-1.288-1.709-1.279-2.62-1.815c-0.41-0.24-0.492,0.192-0.408,0.555c0.176,0.757,1.917,2.124,2.702,2.131
		C126.311,113.715,126.542,113.646,126.529,113.221z M91.74,137.253c0.69-0.031,2.471-1.937,2.463-2.599
		c-0.006-0.505-0.354-0.322-0.598-0.258c-1.246,0.331-1.884,1.284-2.344,2.383C91.033,137.327,91.485,137.235,91.74,137.253z
		 M141.684,79.03c-0.106,0.001-0.212,0.001-0.317,0.002c0,2.477,0,4.953,0,7.429C142.147,83.979,141.905,81.505,141.684,79.03z
		 M125.807,92.983c-0.45,0.074-0.45,0.771-0.998,0.695c-0.632-0.088-1.256,0.736-0.852,0.973c1.094,0.638,0.213,1.201,0.11,1.79
		c-0.067,0.396-0.293,0.792-0.011,1.246C124.742,96.792,125.626,94.378,125.807,92.983z M132.413,150.36
		c-0.413-0.608-0.915-1.32-1.84-1.503c-0.738-0.146-1.061,0.171-0.797,0.946c0.206,0.603,0.598,0.914,1.242,0.893
		c0.215-0.008,0.55-0.182,0.581,0.151c0.028,0.301-0.072,0.594,0.38,0.471C132.361,151.215,132.372,150.863,132.413,150.36z
		 M121.275,84.624c-0.631,0.355-1.229,0.701-1.837,1.03c-0.283,0.153-0.521,0.457-0.309,0.657c0.806,0.754,0.407,1.501,0.091,2.262
		c-0.08,0.191-0.199,0.414,0.02,0.521c0.282,0.137,0.458-0.104,0.504-0.342C120.029,87.304,121.046,86.129,121.275,84.624z
		 M127.678,109.232c0.666-1.242,1.352-2.462,1.577-3.865c0.082-0.51-0.364-0.67-0.698-0.855c-0.385-0.214-0.594,0.07-0.739,0.371
		c-0.17,0.354-0.025,0.442,0.352,0.517c0.75,0.146,0.289,0.615,0.11,0.878C127.673,107.166,127.531,108.149,127.678,109.232z
		 M92.272,133.461c-0.032-0.221-0.144-0.418-0.366-0.376c-0.774,0.146-1.646,0.136-2.175,0.832
		c-0.264,0.348-0.814,0.768-0.479,1.236c0.347,0.488,0.769-0.085,1.158-0.187c0.231-0.061,0.463-0.121,0.691-0.189
		C91.758,134.584,91.911,133.95,92.272,133.461z M97.383,129.347c0.053-0.302-0.098-0.419-0.382-0.465
		c-0.758-0.121-2.311,0.958-2.475,1.729c-0.052,0.242-0.116,0.465,0.224,0.552C95.643,131.392,97.353,130.218,97.383,129.347z
		 M145.444,106.454c0.503-0.86,0.124-1.553,0.271-2.192c0.16-0.692,0.358-1.379,0.585-2.053c0.135-0.4-0.062-0.675-0.211-1
		c-0.138-0.303-0.307-0.48-0.63-0.347c-0.501,0.208-0.639,0.682-0.723,1.155c-0.035,0.201-0.13,0.624,0.186,0.56
		c1.019-0.208,0.513,0.567,0.583,0.887C145.708,104.38,145.032,105.289,145.444,106.454z M127.343,99.523
		c-1.388,1.047-2.541,3.982-2.188,5.287C126.387,103.307,126.619,101.408,127.343,99.523z M120.442,104.88
		c1.047-0.807,1.232-1.725,1.665-2.497c0.525-0.936,0.783-2.003,1.458-2.864c0.254-0.323,0.258-0.764-0.102-0.944
		c-0.546-0.274-0.359,0.285-0.475,0.523c-0.292,0.6-0.532,1.219-0.859,1.812C121.492,102.065,121.077,103.345,120.442,104.88z
		 M52.284,145.355c1.706,0.183,2.83-0.74,3.884-1.785c0.203-0.201,0.505-0.521,0.155-0.815c-0.322-0.271-0.597-0.004-0.8,0.25
		c-0.718,0.895-1.59,1.535-2.735,1.78C52.584,144.829,52.311,144.9,52.284,145.355z M40.775,131.641
		c-0.064-1.114-1.182-1.268-1.478-2.121c-0.257-0.743-1.007-0.984-1.577-1.4c-0.108-0.078-0.337-0.12-0.432-0.059
		c-0.197,0.127-0.077,0.349-0.053,0.543c0.087,0.713,0.771,0.877,1.19,1.257C39.151,130.518,39.986,131.054,40.775,131.641z
		 M97.918,69.588c1.524,2.128,3.112,4.203,4.545,6.394C101.276,73.611,99.897,71.381,97.918,69.588z M88.312,138.236
		c0.214-0.047,0.451-0.087,0.682-0.151c0.789-0.223,1.095-0.876,1.358-1.558c0.064-0.169-0.007-0.377-0.158-0.398
		c-0.728-0.104-1.316,0.249-1.854,0.672c-0.213,0.168-0.368,0.421-0.519,0.655C87.466,138.012,87.644,138.269,88.312,138.236z
		 M136.667,132.118c0.877-1.912,1-4.665,0.25-5.624C136.458,128.35,136.713,130.132,136.667,132.118z M96.447,128.226
		c0.771-0.37,1.787-0.592,2.247-1.591c0.161-0.352,0.146-0.878-0.389-0.626c-0.8,0.378-1.599,0.835-2.205,1.518
		c-0.113,0.127-0.143,0.371-0.131,0.556C95.982,128.265,96.161,128.299,96.447,128.226z M111.062,126.825
		c0.113-0.059,0.261-0.087,0.315-0.173c0.445-0.698,0.911-1.388,1.287-2.123c0.136-0.267,0.003-0.544-0.45-0.388
		c-0.86,0.297-1.392,0.929-1.726,1.711C110.291,126.317,110.522,126.699,111.062,126.825z M95.643,132.139
		c-0.035-0.051-0.096-0.217-0.161-0.219c-0.667-0.021-1.225,0.325-1.775,0.624c-0.395,0.214-0.597,0.636-0.621,1.099
		c-0.004,0.08,0.118,0.203,0.21,0.245C93.917,134.176,95.673,132.905,95.643,132.139z M84.643,136.153
		c-0.741,0.44-1.581,0.893-2.361,1.431c-0.285,0.195-0.16,0.49,0.213,0.595c0.568,0.159,2.41-0.865,2.593-1.452
		C85.186,136.41,85.162,136.168,84.643,136.153z M106.95,107.417c-0.014-0.181-1.953-1.505-2.092-1.417
		c-0.298,0.19-0.756,0.51-0.547,0.807c0.453,0.643,1.124,1.119,1.961,1.149C106.56,107.967,106.888,107.784,106.95,107.417z
		 M126.971,103.715c-0.614,1.015-1.411,1.926-1.594,3.157c-0.03,0.209-0.135,0.518,0.184,0.603c0.269,0.072,0.483-0.161,0.536-0.367
		C126.385,105.983,127.071,104.971,126.971,103.715z M135.144,110.664c-0.417,0.536-0.965,0.743-1.556,0.764
		c-0.489,0.018-0.623,0.26-0.625,0.663c-0.002,0.394,0.146,0.681,0.58,0.768c0.419,0.085,0.577-0.115,0.629-0.49
		c0.027-0.195,0.101-0.5,0.291-0.458C136.073,112.262,134.899,111.066,135.144,110.664z M129.846,105.956
		c-0.459,1.171-0.922,2.34-1.375,3.513c-0.168,0.435,0.076,0.674,0.443,0.834c0.234,0.103,0.474,0.406,0.725,0.07
		c0.252-0.337,0.022-0.564-0.222-0.808c-0.455-0.455-0.263-0.931-0.004-1.415C129.772,107.479,130.164,106.807,129.846,105.956z
		 M86.097,136.577c1.079-0.204,1.787-0.694,2.253-1.546c0.136-0.248,0.328-0.521,0.13-0.769c-0.262-0.329-0.479,0.031-0.708,0.135
		C86.891,134.798,86.298,135.431,86.097,136.577z M107.753,46.187c-0.371,0.375-1.258,0.339-1.148,1.023
		c0.101,0.631,0.851,0.766,1.456,0.812c0.337,0.025,0.763-0.172,0.585-0.534C108.43,47.049,108.56,46.311,107.753,46.187z
		 M48.484,143.949c-0.424-1.081-0.736-1.926-1.09-2.753c-0.111-0.26-0.372-0.474-0.676-0.369c-0.4,0.137-0.184,0.464-0.125,0.713
		C46.826,142.519,47.163,143.428,48.484,143.949z M137.842,146.023c-0.085,0.051-0.171,0.103-0.256,0.153
		c0.729,1.592,1.457,3.184,2.185,4.775C139.709,149.05,138.85,147.504,137.842,146.023z M90.882,132.405
		c1.163-0.109,2.147-0.245,2.705-1.294c0.109-0.205,0.238-0.467-0.005-0.649c-0.177-0.132-0.373-0.004-0.537,0.123
		C92.341,131.128,91.426,131.419,90.882,132.405z M88.485,139.337c-1.17,0.007-1.946,0.373-2.48,1.209
		c-0.105,0.165-0.227,0.362-0.095,0.549c0.146,0.207,0.366,0.09,0.549,0.035C87.333,140.87,88.008,140.373,88.485,139.337z
		 M63.021,140.349c-0.946-0.33-1.747-1.188-2.854-0.75c-0.291,0.114-0.854-0.104-0.804,0.438c0.048,0.512,0.556,0.467,0.95,0.45
		C61.215,140.448,62.118,140.396,63.021,140.349z M149.299,100.258c1.325,0.368,2.742,0.419,3.959,1.139
		c0.032,0.02,0.232-0.126,0.231-0.193c-0.001-0.141-0.046-0.369-0.139-0.409C152.064,100.239,150.79,99.545,149.299,100.258z
		 M110.628,85.404c-0.517,0.624-1.267,0.855-1.933,1.164c-0.762,0.353-0.993,0.947-1.127,1.684
		C108.811,87.543,109.932,86.717,110.628,85.404z M86.075,34.77c-0.659,0.443-0.926,1.267-1.709,0.66
		c-0.136-0.105-0.549,0.41-0.583,0.767c-0.044,0.461,0.297,0.36,0.566,0.28c0.579-0.171,0.256,0.591,0.671,0.624
		C85.451,36.471,85.939,35.867,86.075,34.77z M100.313,127.509c-0.791,0.253-1.553,0.546-1.893,1.334
		c-0.147,0.343-0.504,0.802-0.073,1.065c0.419,0.257,0.712-0.205,0.916-0.541C99.632,128.76,99.964,128.13,100.313,127.509z
		 M105.812,17.108c0.522,0,1.089-0.159,1.622-0.436c0.245-0.127,0.542-0.254,0.433-0.606c-0.104-0.334-0.396-0.315-0.689-0.291
		c-0.616,0.051-1.089,0.456-1.648,0.646c-0.256,0.087-0.572,0.208-0.419,0.577C105.231,17.288,105.503,17.178,105.812,17.108z
		 M133.477,152.578c-0.26-0.487-0.745-0.504-1.202-0.573c-0.433-0.066-0.98-0.229-1.082,0.372c-0.1,0.585,0.407,0.854,0.91,0.894
		C132.633,153.312,133.113,153.101,133.477,152.578z M80.917,140.356c1.125-0.071,2.009-0.096,2.699-0.791
		c0.167-0.168,0.304-0.385,0.159-0.635c-0.1-0.173-0.293-0.144-0.427-0.08C82.558,139.226,81.698,139.497,80.917,140.356z
		 M84.895,140.888c-0.015-0.373-0.23-0.439-0.484-0.369c-0.801,0.224-1.229,0.832-1.452,1.573c-0.086,0.287,0.22,0.42,0.466,0.344
		C84.209,142.192,84.571,141.534,84.895,140.888z M127.102,61.831c1.502-0.876,2.872-1.908,4.27-3.167
		C130.892,58.722,127.234,61.407,127.102,61.831z M106.189,75.147c-0.573-0.372-1.019-0.626-1.424-0.933
		c-0.475-0.358-0.896-0.202-1.319,0.062c-0.225,0.14-0.357,0.523-0.077,0.509C104.296,74.739,105.043,75.835,106.189,75.147z
		 M113.161,127.522c0.959,0.088,1.951,0.26,2.361-0.928c0.097-0.281,0.078-0.559-0.238-0.7c-0.207-0.093-0.431-0.009-0.492,0.186
		C114.534,126.892,113.774,127.092,113.161,127.522z M134.18,144.018c-0.018-0.354-0.121-0.776-0.499-0.659
		c-0.548,0.17-1.12,0.468-1.198,1.163c-0.032,0.287,0.075,0.609,0.451,0.553C133.552,144.98,134.092,144.743,134.18,144.018z
		 M114.344,117.857c-0.054,0.835-0.02,1.549-0.273,2.229c-0.111,0.299-0.05,0.575,0.289,0.667c0.397,0.108,0.433-0.242,0.53-0.49
		C115.231,119.395,115.018,118.634,114.344,117.857z M84.994,139.33c0.685-0.214,1.334-0.483,1.546-1.284
		c0.063-0.237-0.046-0.454-0.266-0.397c-0.716,0.183-1.284,0.597-1.58,1.301C84.592,139.189,84.742,139.31,84.994,139.33z
		 M135.425,138.357c-0.109,0.023-0.219,0.047-0.328,0.07c-0.066,0.437,0.26,0.913-0.102,1.339c-0.227,0.267-0.054,0.619,0.169,0.868
		c0.205,0.23,0.425,0.131,0.623-0.038c0.284-0.242,0.549-0.507,0.351-0.916C135.919,139.23,135.665,138.798,135.425,138.357z
		 M129.213,155.219c0.304-0.038,0.803,0.192,0.88-0.3c0.07-0.448-0.471-0.294-0.714-0.45c-0.464-0.298-0.942-0.446-1.457-0.15
		c-0.07,0.04-0.133,0.237-0.096,0.297C128.14,155.115,128.659,155.183,129.213,155.219z M131.125,124.085
		c-0.082-0.37-0.02-0.896-0.584-0.864c-0.446,0.025-0.886,0.313-0.855,0.817c0.029,0.483,0.493,0.745,0.92,0.804
		C131.135,124.916,131.047,124.414,131.125,124.085z M124.822,89.575c0.689-0.802,0.865-1.863,1.596-2.609
		c0.126-0.129,0.106-0.307-0.054-0.398c-0.081-0.047-0.295-0.035-0.312,0.007C125.64,87.578,124.607,88.322,124.822,89.575z
		 M132.22,142.471c0.362-0.104,0.866-0.135,0.846-0.722c-0.013-0.37-0.22-0.727-0.635-0.708c-0.549,0.024-0.815,0.443-0.868,0.943
		C131.521,142.384,131.798,142.524,132.22,142.471z M120.601,41.619c-0.057-0.96-0.547-1.738-1.147-1.834
		c-0.443-0.071-0.841,0.245-1.129,0.997C119.678,39.678,119.843,41.32,120.601,41.619z M105.693,48.453
		c-0.34-0.499-0.664-0.98-0.995-1.459c-0.112-0.163-0.236-0.349-0.471-0.243c-0.088,0.04-0.168,0.167-0.192,0.269
		C103.867,47.736,104.801,48.57,105.693,48.453z M108.245,95.924c0.346-1.513,0.082-3.658-0.625-4.33
		C108.462,92.903,107.725,94.408,108.245,95.924z M133.61,80.218c-0.066,1.55-0.675,3.084-0.265,4.937
		C133.747,83.351,133.65,81.784,133.61,80.218z M129.28,155.957c-0.224,0.068-0.693-0.233-0.777,0.168
		c-0.103,0.494,0.425,0.456,0.746,0.549c0.152,0.043,0.314,0.078,0.472,0.077c0.397-0.002,1.022,0.396,1.116-0.201
		c0.073-0.473-0.581-0.539-1.018-0.591C129.662,155.941,129.5,155.957,129.28,155.957z M145.247,83.667
		c-0.367,1.372,0.067,2.698,0.217,4.045C145.834,86.346,145.24,85.021,145.247,83.667z M148.238,106.631
		c-0.136,0.613-0.39,1.247,0.392,1.521c0.32,0.112,0.694-0.01,0.786-0.346C149.679,106.832,148.581,107.108,148.238,106.631z
		 M128.133,153.303c0.191-0.091,0.729,0.131,0.656-0.332c-0.109-0.712-0.845-0.552-1.345-0.679c-0.303-0.077-0.6,0.023-0.518,0.411
		C127.057,153.322,127.59,153.27,128.133,153.303z M79.513,139.545c0.596-0.147,1.036-0.496,1.193-1.132
		c0.06-0.243-0.094-0.368-0.329-0.352c-0.708,0.05-0.966,0.598-1.198,1.141C79.075,139.443,79.248,139.554,79.513,139.545z
		 M135.381,48.513c0.847,0.118,1.633-0.494,2.606-0.036C137.284,47.403,136.835,47.418,135.381,48.513z M90.236,54.046
		c0.496-0.824,0.557-1.532,0.671-2.216c0.047-0.28-0.098-0.54-0.422-0.623c-0.205-0.053-0.394-0.026-0.531,0.146
		c-0.135,0.169-0.192,0.406-0.007,0.523C90.795,52.416,90.242,53.144,90.236,54.046z M119.063,95.687
		c0.089,0.036,0.178,0.072,0.267,0.108c0.384-0.686,0.788-1.36,1.136-2.064c0.085-0.173,0.1-0.504-0.2-0.589
		c-0.103-0.028-0.335,0.1-0.376,0.207C119.595,94.12,119.334,94.905,119.063,95.687z M137.485,108.3
		c-0.591,1.179-0.266,2.449-0.457,3.668C137.291,110.756,137.263,109.516,137.485,108.3z M121.67,96.859
		c-0.099-0.059-0.198-0.118-0.298-0.177c-0.394,0.751-1.062,1.393-0.682,2.455C121.018,98.378,121.344,97.618,121.67,96.859z
		 M142.911,107.472c-0.585,0.732-0.312,1.321,0.041,2.138C143.28,108.77,143.333,108.169,142.911,107.472z M120.212,100.545
		c-0.111-0.055-0.223-0.108-0.333-0.162c-0.399,0.964-0.971,1.859-0.908,3.008C119.385,102.442,119.798,101.493,120.212,100.545z
		 M129.639,148.123c0.22-0.116,0.73,0.075,0.715-0.458c-0.007-0.266-0.054-0.82-0.371-0.724c-0.377,0.116-0.736,0.526-0.934,0.899
		C128.935,148.058,129.337,148.106,129.639,148.123z M121.771,99.32c-0.701,0.932-0.915,1.731-1.331,2.775
		C121.405,101.307,121.7,100.546,121.771,99.32z M120.022,23.929c0.49,0.334,0.327,1.052,1.052,0.92
		c0.32-0.058,0.461-0.437,0.373-0.667C121.21,23.562,120.71,23.793,120.022,23.929z M142.806,82.979
		c0.129,1.272-0.27,2.562,0.229,3.821C142.817,85.53,143.231,84.241,142.806,82.979z M149.113,92.818
		c0.109-0.008,0.219-0.017,0.328-0.024c0.19-0.923-0.25-1.795-0.287-2.699c-0.098,0.008-0.196,0.016-0.295,0.023
		C148.944,91.019,149.028,91.919,149.113,92.818z M145.545,91.51c0.251,0.468-0.985,1.281-0.23,2.264
		C145.957,92.874,145.5,91.979,145.545,91.51z M132.627,79.57c-0.182,0.811-0.784,1.57-0.38,2.457
		C132.418,81.211,132.871,80.447,132.627,79.57z M128.872,144.879c-0.309,0-0.708-0.11-0.773,0.333
		c-0.055,0.365,0.281,0.45,0.567,0.452c0.349,0.002,0.846,0.071,0.916-0.352C129.653,144.888,129.171,144.937,128.872,144.879z
		 M93.218,56.549c-0.578,0.283-0.601-0.321-0.864-0.376c-0.339-0.071-0.521,0.337-0.557,0.642c-0.054,0.473,0.378,0.436,0.661,0.458
		C92.823,57.302,92.997,57.014,93.218,56.549z M121.463,81.535c0.649-0.362,1.128-0.818,0.98-1.898
		C121.786,80.334,121.63,80.934,121.463,81.535z M134.614,84.994c-0.176,0.77-0.617,1.547,0.143,2.285
		C134.708,86.518,134.661,85.756,134.614,84.994z M125.476,155.327c-0.165-0.487-0.621-0.553-1.039-0.666
		c-0.162-0.044-0.398,0.009-0.348,0.192c0.145,0.53,0.659,0.628,1.094,0.778C125.339,155.687,125.461,155.526,125.476,155.327z
		 M120.842,82.31c-0.269,0.63-0.537,1.26-0.806,1.891C120.413,83.618,121.281,83.259,120.842,82.31z"/>
	<path style="fill: #FAEDF0;clip-rule:evenodd;" d="M72.986,142.253c-1.107,1.675-1.968,3.512-3.396,4.976
		c-0.213,0.219-0.52,0.481-0.824,0.167c-0.279-0.287,0.051-0.479,0.212-0.691c1.082-1.419,2.152-2.848,3.24-4.262
		c0.132-0.172,0.351-0.277,0.53-0.413C72.827,142.104,72.907,142.178,72.986,142.253z"/>
	<path style="fill: #FAEDF0;clip-rule:evenodd;" d="M114.733,81.849c-0.291,0.166-0.622,0.589-0.907,0.29
		c-0.331-0.348,0.089-0.693,0.312-0.998c0.032-0.038,0.068-0.075,0.107-0.11c0.385-0.232,0.756-0.512,1.285-0.424
		C115.431,81.157,114.756,81.298,114.733,81.849z"/>
	<path style="fill: #FAEDF0;clip-rule:evenodd;" d="M78.673,113.479c-0.604,1.067-1.146,2.133-1.784,3.138
		c-1.749,2.751-3.512,5.493-5.32,8.206c-0.809,1.214-2.021,2.249-2.646,3.459c-0.866,1.675-2.07,3.085-2.974,4.703
		c-0.289,0.518-0.661,0.993-1.027,1.463c-0.188,0.242-0.465,0.608-0.771,0.406c-0.359-0.236-0.028-0.572,0.135-0.824
		c0.797-1.232,1.738-2.361,2.48-3.643c0.452-0.78,1.125-1.366,1.133-2.411c0.005-0.695,0.932-0.868,1.364-1.435
		c1.894-2.475,3.367-5.221,5.196-7.729c1.037-1.421,1.885-2.948,2.735-4.48c0.226-0.408,0.597-0.742,0.932-1.08
		c0.083-0.083,0.291-0.084,0.426-0.054C78.613,113.212,78.639,113.393,78.673,113.479z"/>
	<path style="fill: #FAEDF0;clip-rule:evenodd;" d="M41.913,96.009c-0.01,0.757-0.513,1.207-0.882,1.677
		c-1.75,2.231-3.114,4.713-4.682,7.049c-1.362,2.029-2.355,4.284-3.936,6.2c-0.834,1.01-1.365,2.299-2.435,3.174
		c-0.235,0.192-0.376,0.621-0.751,0.417c-0.431-0.235-0.093-0.65-0.094-0.982c0-0.266-0.259-0.76,0.329-0.658
		c0.747,0.129,0.84-0.461,1.111-0.863c2.791-4.153,5.569-8.314,8.373-12.46c0.646-0.955,1.374-1.854,2.06-2.782
		C41.231,96.473,41.383,96.083,41.913,96.009z"/>
	<path style="fill: #FAEDF0;clip-rule:evenodd;" d="M74.387,128.906c0.369-1.109,1.097-1.714,1.584-2.473
		c1.27-1.973,2.542-3.944,3.851-5.892c0.908-1.351,1.996-2.595,2.784-4.008c0.658-1.18,1.211-2.423,2.009-3.52
		c0.207-0.286,0.486-0.858,0.912-0.562c0.466,0.323,0.082,0.769-0.164,1.139c-3.13,4.706-6.261,9.409-9.369,14.129
		C75.634,128.269,75.274,128.735,74.387,128.906z"/>
	<path style="fill: #FAEDF0;clip-rule:evenodd;" d="M71.169,129.334c-0.577-0.224-0.238-0.55-0.05-0.819
		c0.846-1.208,1.737-2.384,2.557-3.608c2.525-3.771,5.137-7.485,7.501-11.362c0.204-0.334,0.41-0.844,0.874-0.497
		c0.388,0.29-0.035,0.642-0.22,0.921c-2.541,3.86-5.059,7.737-7.653,11.562c-0.758,1.116-1.646,2.147-2.338,3.316
		C71.705,129.078,71.507,129.301,71.169,129.334z"/>
	<path style="fill: #FAEDF0;clip-rule:evenodd;" d="M59.985,106.924c-1.082,1.496-2.173,2.985-3.244,4.488
		c-2.054,2.883-4.089,5.778-6.153,8.653c-0.221,0.308-0.398,0.997-0.916,0.641c-0.376-0.26,0.059-0.75,0.267-1.046
		c1.486-2.11,2.997-4.203,4.516-6.289c1.33-1.825,2.681-3.636,4.023-5.453C58.834,107.437,59.253,107.029,59.985,106.924z"/>
	<path style="fill: #FAEDF0;clip-rule:evenodd;" d="M87.948,114.428c-0.065,0.162-0.093,0.283-0.156,0.38
		c-2.078,3.178-4.159,6.353-6.241,9.528c-0.021,0.032-0.044,0.067-0.072,0.094c-0.253,0.233-0.53,0.703-0.857,0.444
		c-0.376-0.296,0.107-0.619,0.273-0.893c1.869-3.085,4.055-5.972,5.716-9.187c0.143-0.274,0.379-0.508,0.599-0.733
		c0.155-0.159,0.378-0.157,0.538-0.007C87.851,114.152,87.891,114.317,87.948,114.428z"/>
	<path style="fill: #FAEDF0;clip-rule:evenodd;" d="M62.969,109.57c-0.881,1.354-1.881,2.647-2.617,4.076
		c-1.514,2.938-3.815,5.352-5.345,8.269c-0.037,0.07-0.065,0.151-0.119,0.207c-0.28,0.291-0.478,0.934-0.977,0.591
		c-0.397-0.272-0.011-0.779,0.205-1.049c2.298-2.863,4.018-6.124,6.244-9.033C61.165,111.578,61.64,110.266,62.969,109.57z"/>
	<path style="fill: #FAEDF0;clip-rule:evenodd;" d="M52.4,121.18c0.463-1.665,1.756-2.793,2.559-4.242
		c1.909-3.443,4.62-6.36,6.476-9.842c0.185-0.348,0.528-0.753,0.947-0.443c0.403,0.297-0.108,0.532-0.26,0.752
		c-3.021,4.369-6.053,8.731-9.09,13.089C52.854,120.746,52.612,120.952,52.4,121.18z"/>
	<path style="fill: #FAEDF0;clip-rule:evenodd;" d="M56.833,122.249c0.347-1.496,1.225-2.402,1.875-3.401
		c1.491-2.293,3.174-4.462,4.646-6.767c0.469-0.734,0.942-1.428,1.525-2.067c0.206-0.226,0.329-0.697,0.681-0.456
		c0.375,0.258,0.007,0.584-0.207,0.781c-1.403,1.293-2.244,2.991-3.28,4.544c-1.302,1.95-2.517,3.957-3.796,5.922
		C57.96,121.29,57.662,121.827,56.833,122.249z"/>
	<path style="fill: #FAEDF0;clip-rule:evenodd;" d="M44.581,99.291c-2.739,4.461-5.646,8.832-8.32,13.35
		C38.271,107.724,41.353,103.469,44.581,99.291z"/>
	<path style="fill: #FAEDF0;clip-rule:evenodd;" d="M69.216,118.365c-2.308,4.075-5.124,7.767-8.241,11.236
		C63.536,125.717,66.545,122.16,69.216,118.365z"/>
	<path style="fill: #FAEDF0;clip-rule:evenodd;" d="M47.137,110.17c1.816-2.063,3.037-4.398,4.665-6.44
		c0.874-1.096,1.519-2.33,2.32-3.468c0.184-0.261,0.417-0.673,0.71-0.468c0.405,0.285,0.015,0.585-0.194,0.878
		c-1.415,1.987-2.858,3.957-4.187,6.001c-0.713,1.097-1.704,1.99-2.254,3.204C48.072,110.151,47.729,110.295,47.137,110.17z"/>
	<path style="fill: #FAEDF0;clip-rule:evenodd;" d="M41.288,100.151c-1.771,2.915-3.194,6.048-5.441,8.665
		C37.052,105.549,39.288,102.924,41.288,100.151z"/>
	<path style="fill: #FAEDF0;clip-rule:evenodd;" d="M71.855,133.046c-0.208,0.398-0.076,0.994-0.516,1.272
		c-0.457,0.29-0.902,0.016-1.336-0.222c-1.285-0.703-1.562-1.689-0.703-2.665c0.202-0.229,0.587-0.554,0.671-0.022
		c0.121,0.765,0.613,0.828,1.174,0.939C71.504,132.42,71.85,132.551,71.855,133.046z"/>
	<path style="fill: #FAEDF0;clip-rule:evenodd;" d="M83.017,67.209c0.837-0.256,1.035-1.303,1.979-1.481
		c-2.089,2.969-4.108,5.977-6.229,8.926c0.179-0.766,0.444-1.481,0.973-2.048c0.677-0.727,1.127-1.54,1.152-2.553l-0.031,0.045
		c1.24-0.592,1.557-1.877,2.197-2.921L83.017,67.209z"/>
	<path style="fill: #FAEDF0;clip-rule:evenodd;" d="M80.892,70.053c-0.308,0.146-0.598,0.372-1.25,0.199
		c1.881-2.011,2.918-4.498,5.376-6.249c-0.449,1.469-1.509,2.161-2.001,3.206c0,0,0.041-0.032,0.04-0.032
		c-0.973,0.792-1.617,1.832-2.196,2.921L80.892,70.053z"/>
	<path style="fill: #FAEDF0;clip-rule:evenodd;" d="M44.576,104.476c0.208,0.407-0.094,0.691-0.266,0.975
		c-1.073,1.765-2.163,3.52-3.261,5.27c-0.146,0.232-0.353,0.437-0.566,0.611c-0.1,0.082-0.306,0.123-0.422,0.077
		c-0.173-0.068-0.158-0.272-0.066-0.41c1.445-2.177,2.895-4.35,4.352-6.519C44.37,104.444,44.491,104.476,44.576,104.476z"/>
	<path style="fill: #FAEDF0;clip-rule:evenodd;" d="M86.224,121.395c-0.218-0.695,0.205-0.928,0.408-1.229
		c0.757-1.115,1.643-2.146,2.144-3.423c0.13-0.328,0.374-0.53,0.749-0.414c0.217,0.067,0.332,0.309,0.243,0.481
		C88.882,118.521,87.823,120.094,86.224,121.395z"/>
	<path style="fill: #FAEDF0;clip-rule:evenodd;" d="M78.309,83.35c1.719-2.289,3.438-4.578,5.156-6.867
		c0.089,0.064,0.177,0.129,0.266,0.194c-1.597,2.376-3.203,4.746-5.083,6.917C78.535,83.513,78.422,83.432,78.309,83.35z"/>
	<path style="fill: #FAEDF0;clip-rule:evenodd;" d="M32.922,104.923c0.636-2.012,1.793-3.708,3.217-5.242
		C35.471,101.674,34.226,103.315,32.922,104.923z"/>
	<path style="fill: #FAEDF0;clip-rule:evenodd;" d="M81.344,75.711c-1.001,1.98-2.398,3.672-3.994,5.211
		C78.464,79.027,79.702,77.226,81.344,75.711z"/>
	<path style="fill: #FAEDF0;clip-rule:evenodd;" d="M61.2,133.745c1.224-1.628,2.448-3.254,3.672-4.881
		c0.118,0.087,0.235,0.174,0.353,0.262c-1.2,1.645-2.399,3.29-3.6,4.936C61.484,133.956,61.342,133.851,61.2,133.745z"/>
	<path style="fill: #FAEDF0;clip-rule:evenodd;" d="M29.153,111.238c-0.211-1.557,0.417-2.438,1.358-3.178
		c0.162-0.128,0.365-0.224,0.538-0.096c0.23,0.171,0.168,0.438,0.046,0.643C30.58,109.475,30.114,110.383,29.153,111.238z"/>
	<path style="fill: #FAEDF0;clip-rule:evenodd;" d="M69.672,117.809c0.659-1.62,1.243-3.285,2.572-4.525
		C71.84,115.041,70.775,116.436,69.672,117.809z"/>
	<path style="fill: #FAEDF0;clip-rule:evenodd;" d="M50.383,101.252c0.945-1.642,1.887-3.285,2.837-4.924
		c0.116-0.199,0.264-0.442,0.551-0.253c0.149,0.098,0.14,0.299,0.03,0.425c-1.25,1.434-1.875,3.3-3.223,4.663
		c-0.047,0.048-0.148,0.042-0.224,0.061L50.383,101.252z"/>
	<path style="fill: #FAEDF0;clip-rule:evenodd;" d="M68.067,124.337c1.01-1.505,2.021-3.009,3.031-4.514
		c0.104,0.072,0.209,0.146,0.313,0.218C70.443,121.575,69.484,123.115,68.067,124.337z"/>
	<path style="fill: #FAEDF0;clip-rule:evenodd;" d="M84.495,75.383c0.698-1.417,1.473-2.774,2.652-3.849
		C86.515,72.991,85.546,74.221,84.495,75.383z"/>
	<path style="fill: #FAEDF0;clip-rule:evenodd;" d="M65.753,115.17c0.262-1.59,1.816-2.219,2.572-3.439
		c-0.839,1.156-1.257,2.634-2.6,3.41L65.753,115.17z"/>
	<path style="fill: #FAEDF0;clip-rule:evenodd;" d="M39.457,94.972c-0.575,1.211-1.121,2.442-2.404,3.364
		C37.556,96.855,38.43,95.859,39.457,94.972z"/>
	<path style="fill: #FAEDF0;clip-rule:evenodd;" d="M65.059,120.289c-0.418,1.266-1.188,2.283-2.256,3.09
		c0.612-1.126,1.132-2.318,2.28-3.06L65.059,120.289z"/>
	<path style="fill: #FAEDF0;clip-rule:evenodd;" d="M85.338,70.268c0.493-1.216,1.129-2.333,2.24-3.115
		C87.149,68.415,85.926,69.118,85.338,70.268z"/>
	<path style="fill: #FAEDF0;clip-rule:evenodd;" d="M50.355,101.224c-0.337,1.471-1.441,2.383-2.415,3.391
		c0.671-1.226,1.409-2.404,2.444-3.361C50.383,101.252,50.355,101.224,50.355,101.224z"/>
	<path style="fill: #FAEDF0;clip-rule:evenodd;" d="M65.228,73.814c0.722-0.999,1.25-2.137,2.419-2.819
		c-0.717,1.006-1.435,2.012-2.152,3.018C65.406,73.946,65.316,73.88,65.228,73.814z"/>
	<path style="fill: #FAEDF0;clip-rule:evenodd;" d="M71.789,118.866c0.553-1.167,1.287-2.216,2.036-3.254
		c0.106,0.069,0.212,0.139,0.317,0.209c-0.69,1.076-1.38,2.153-2.07,3.23C71.978,118.99,71.883,118.929,71.789,118.866z"/>
	<path style="fill: #FAEDF0;clip-rule:evenodd;" d="M49.224,96.88c0.464-0.806,0.924-1.614,1.397-2.415
		c0.108-0.183,0.31-0.29,0.505-0.173c0.224,0.134,0.137,0.36,0.02,0.519c-0.56,0.748-1.134,1.485-1.703,2.227
		C49.37,96.984,49.297,96.933,49.224,96.88z"/>
	<path style="fill: #FAEDF0;clip-rule:evenodd;" d="M65.726,115.141c-0.265,1.242-1.045,2.145-1.94,2.969
		c0.286-1.229,0.993-2.175,1.969-2.938C65.753,115.17,65.726,115.141,65.726,115.141z"/>
	<path style="fill: #FAEDF0;clip-rule:evenodd;" d="M44.388,109.355c0.516-0.756,0.646-1.79,1.559-2.3
		C45.992,107.777,45.594,108.394,44.388,109.355z"/>
	<path style="fill: #FAEDF0;clip-rule:evenodd;" d="M56.329,72.381c0.322-1.013,0.774-1.935,1.634-2.583
		C57.758,70.877,56.938,71.568,56.329,72.381z"/>
	<path style="fill: #FAEDF0;clip-rule:evenodd;" d="M46.374,101.642c0.528-0.926,1.056-1.853,1.583-2.778
		c0.089,0.051,0.178,0.102,0.268,0.152C47.74,99.967,47.372,100.983,46.374,101.642z"/>
	<path style="fill: #FAEDF0;clip-rule:evenodd;" d="M65.083,120.319c0.368-1.148,1.129-2.037,1.925-2.903
		c-0.481,1.071-1.032,2.096-1.951,2.871C65.059,120.289,65.083,120.319,65.083,120.319z"/>
	<path style="fill: #FAEDF0;clip-rule:evenodd;" d="M41.207,92.194c-0.177,0.93-0.734,1.226-1.167,1.625
		C40.014,93.091,40.375,92.633,41.207,92.194z"/>
	<path style="fill: #FAEDF0;clip-rule:evenodd;" d="M61.421,69.75c-0.463,0.877-0.893,1.473-1.5,1.936
		C60.132,70.93,60.373,70.195,61.421,69.75z"/>
	<path style="fill:#FAEDF0;clip-rule:evenodd;" d="M126.088,46.002c0.866,0.71,1.547,1.291,2.476,1.474
		c0.205,0.041,0.414,0.136,0.327,0.381c-0.038,0.11-0.24,0.218-0.376,0.229c-0.642,0.053-1.28,0.011-1.874-0.268
		c-1.675-0.786-2.458-3.512-1.593-5.12c1.682-3.128,5.502-2.689,7.482-1.51c0.604,0.359,0.475,2.47-0.094,2.888
		c-0.426,0.312-0.651,0.017-0.939-0.173c-0.23-0.151-0.476-0.392-0.757-0.232c-0.366,0.209-0.147,0.564-0.11,0.863
		c0.044,0.354,0.181,0.723,0.125,1.059c-0.301,1.81-0.862,2.04-2.43,1.013C127.72,46.209,127.125,45.833,126.088,46.002z
		 M127.509,41.472c0.425,0.203,0.528,0.259,0.636,0.302c1.258,0.508,2.859-0.029,3.862,1.277c0.104,0.137,0.313,0.058,0.371-0.122
		c0.074-0.231-0.116-0.351-0.258-0.492C130.895,41.211,129.433,41.074,127.509,41.472z M129.382,46.217
		c0.208-0.661-0.194-1.021-0.411-1.387c-0.545-0.923-1.678-1.206-2.444-0.675c-0.16,0.111-0.365,0.234-0.274,0.462
		c0.096,0.242,0.315,0.189,0.494,0.09c0.533-0.297,0.907,0.028,1.274,0.327C128.461,45.393,128.88,45.778,129.382,46.217z"/>
	<path style="fill-rule:evenodd;clip-rule:evenodd;" d="M111.713,60.989c-0.051,2.02-1.592,2.528-2.679,3.408
		C109.549,63.086,110.364,62.009,111.713,60.989z"/>
	<path style="fill-rule:evenodd;clip-rule:evenodd;" d="M105.323,65.736c0.308-1.327,1.212-2.244,2.164-3.128
		C106.88,63.726,105.906,64.592,105.323,65.736z"/>
	<path style="fill-rule:evenodd;clip-rule:evenodd;" d="M106.25,70.06c0.544-0.678,0.951-1.129,1.665-1.099
		c0.06,0.003,0.184,0.213,0.158,0.255C107.704,69.828,107.085,69.897,106.25,70.06z"/>
	<path style="fill-rule:evenodd;clip-rule:evenodd;" d="M114.374,12.851c-0.051,1.165-0.136,2.047-0.698,3
		C113.202,14.654,113.613,13.849,114.374,12.851z"/>
	<path style="fill-rule:evenodd;clip-rule:evenodd;" d="M133.037,18.909c0.476,0.095,0.938,0.181,1.397,0.283
		c0.231,0.051,0.524,0.14,0.421,0.434c-0.097,0.276-0.402,0.197-0.613,0.106c-0.412-0.177-0.826-0.206-1.267-0.157
		c-0.266,0.03-0.666,0.037-0.667-0.298C132.307,18.814,132.77,19.004,133.037,18.909z"/>
	<path style="fill-rule:evenodd;clip-rule:evenodd;" d="M135.674,15.797c0.329-0.005,0.589,0.075,0.585,0.355
		c-0.007,0.438-0.288,0.728-0.714,0.807c-0.277,0.052-0.618,0.001-0.575-0.38C135.018,16.159,135.34,15.915,135.674,15.797z"/>
	<path style="fill-rule:evenodd;clip-rule:evenodd;" d="M122.446,63.722c0.679,0.348,1.378,0.284,2.082-0.159
		c0.214-0.135,0.524,0.068,0.545,0.316c0.075,0.912,0.733,1.109,1.44,1.356c0.613,0.215,0.574,0.575,0.021,0.899
		c-0.271,0.158-0.666,0.299-0.756,0.541c-0.566,1.528-1.202,1.012-1.981,0.171c-0.399-0.432-0.986-0.441-1.569-0.276
		c-0.587,0.166-0.949-0.06-0.581-0.651c0.344-0.551,0.522-1.009,0.226-1.642C121.7,63.909,121.962,63.685,122.446,63.722z
		 M125.308,65.848c-0.503-0.296-0.412-1.207-1.143-1.191c-0.4,0.008-1.227-0.16-1.167,0.646c0.062,0.854,1.017,0.873,1.56,1.254
		C124.888,66.789,125.068,66.211,125.308,65.848z"/>
</g>
</svg>
